<svg xmlns="http://www.w3.org/2000/svg" xmlns:xlink="http://www.w3.org/1999/xlink" width="481pt" height="649pt" viewBox="0 0 481 649"><g data-name="Artifact"><clipPath id="a"><path transform="matrix(1 0 0 -1 -25 1393)" d="M0 0h841.92v1417.32H0z" fill-rule="evenodd"/></clipPath><g clip-path="url(#a)"><path d="M-25 1393h841.92V-24.32H-25z" fill="#fff" fill-rule="evenodd"/></g></g><path d="M147.29 40.9v12.65h-1.5V40.9zm-.75 12.65 5-4-5 10-5-10zM50.93 40.9v12.65h-1.5V40.9zm-.75 12.65 5-4-5 10-5-10zM147.29 76.9v11.75h-1.5V76.9zm-.75 11.75 5-4-5 10-5-10zM51.89 76.9v11.75h-1.5V76.9zm-.75 11.75 5-4-5 10-5-10zM147.41 131.86v11.75h-1.5v-11.75zm-.75 11.75 5-4-5 10-5-10zM52.13 131.86v11.75h-1.5v-11.75zm-.75 11.75 5-4-5 10-5-10zM147.77 179.38v11.75h-1.5v-11.75zm-.75 11.75 5-4-5 10-5-10zM52.49 179.38v11.75h-1.5v-11.75zm-.75 11.75 5-4-5 10-5-10zM147.77 234.46v11.75h-1.5v-11.75zm-.75 11.75 5-4-5 10-5-10zM52.49 234.46v11.75h-1.5v-11.75zm-.75 11.75 5-4-5 10-5-10zM98.93 371.86v11.55h-1.5v-11.55zm-.75 11.55 5-4-5 10-5-10zM99.29 495.22l.23 99.15h-1.5l-.23-99.15zm-.52 99.15 4.99-4.01-4.97 10.01-5.03-9.99zM99.05 336.82v11.55h-1.5v-11.55zm-.75 11.55 5-4-5 10-5-10zM98.93 406.42v11.55h-1.5v-11.55zm-.75 11.55 5-4-5 10-5-10zM98.93 460.66v11.55h-1.5v-11.55zm-.75 11.55 5-4-5 10-5-10zM98.93 281.86v11.55h-1.5v-11.55zm-.75 11.55 5-4-5 10-5-10z" fill="#970000" fill-opacity=".671" data-name="P"/><g data-name="P"><path d="M6.38 62.52a2.9 2.9 0 0 1 2.9-2.9h178.28c1.6 0 2.9 1.3 2.9 2.9v11.6c0 1.6-1.3 2.9-2.9 2.9H9.28a2.9 2.9 0 0 1-2.9-2.9z" fill="#f8cbad" fill-rule="evenodd"/><path stroke-width="1.5" stroke-miterlimit="10" fill="none" stroke="#b5b5b5" d="M6.38 62.52a2.9 2.9 0 0 1 2.9-2.9h178.28c1.6 0 2.9 1.3 2.9 2.9v11.6c0 1.6-1.3 2.9-2.9 2.9H9.28a2.9 2.9 0 0 1-2.9-2.9z"/></g><g data-name="Span"><clipPath id="b"><path transform="matrix(1 0 0 -1 -25 1393)" d="M0 0h841.92v1417.32H0z" fill-rule="evenodd"/></clipPath><g clip-path="url(#b)"><symbol id="c"><path d="M.389.187a.181.181 0 0 0-.017-.08.168.168 0 0 0-.045-.059.196.196 0 0 0-.069-.036.282.282 0 0 0-.143-.007.333.333 0 0 0-.084.03.105.105 0 0 0-.02.014.04.04 0 0 0-.009.014.129.129 0 0 0-.001.042c0 .005.002.01.003.012.001.003.003.005.005.006a.012.012 0 0 0 .007.002C.02.125.026.122.035.117A.328.328 0 0 1 .114.08a.224.224 0 0 1 .114 0A.117.117 0 0 1 .267.1c.01.009.02.02.025.033a.107.107 0 0 1 .009.044.083.083 0 0 1-.012.046.12.12 0 0 1-.033.033.257.257 0 0 1-.046.027.617.617 0 0 0-.104.052.222.222 0 0 0-.045.036.17.17 0 0 0-.033.047.165.165 0 0 0-.012.067.149.149 0 0 0 .054.123.178.178 0 0 0 .06.031.254.254 0 0 0 .16-.002A.191.191 0 0 0 .342.61.028.028 0 0 0 .35.604.023.023 0 0 0 .35.597l.002-.01A.19.19 0 0 0 .35.544.015.015 0 0 0 .346.538.01.01 0 0 0 .34.536a.04.04 0 0 0-.017.006.39.39 0 0 1-.068.031.163.163 0 0 1-.096 0A.091.091 0 0 1 .126.555.075.075 0 0 1 .107.527a.092.092 0 0 1 .006-.08.126.126 0 0 1 .033-.033.3.3 0 0 1 .046-.027A69.285 69.285 0 0 0 .297.334.204.204 0 0 0 .343.3.15.15 0 0 0 .39.187z"/></symbol><symbol id="d"><path d="M.404.26C.404.248.401.238.394.233A.032.032 0 0 0 .374.225H.085C.085.201.087.18.092.16A.127.127 0 0 1 .117.11.11.11 0 0 1 .16.077.176.176 0 0 1 .228.065a.286.286 0 0 1 .127.028A.048.048 0 0 0 .373.1.01.01 0 0 0 .378.097.01.01 0 0 0 .383.092.091.091 0 0 0 .384.048.015.015 0 0 0 .38.042.023.023 0 0 0 .377.036a.078.078 0 0 0-.016-.01A.437.437 0 0 0 .22 0a.274.274 0 0 0-.094.016.176.176 0 0 0-.11.12A.348.348 0 0 0 0 .239c0 .038.005.072.015.102.01.03.023.056.042.076.018.022.04.038.067.049A.216.216 0 0 0 .21.483.21.21 0 0 0 .299.466a.165.165 0 0 0 .094-.11.28.28 0 0 0 .011-.081V.26m-.08.024a.147.147 0 0 1-.03.1C.276.408.247.42.209.42a.113.113 0 0 1-.09-.041.136.136 0 0 1-.024-.044.179.179 0 0 1-.009-.05h.238z"/></symbol><symbol id="e"><path d="M.378.015c0-.002 0-.005-.002-.007A.017.017 0 0 0 .37.004.045.045 0 0 0 .358 0a.162.162 0 0 0-.052.003A.017.017 0 0 0 .3.008a.012.012 0 0 0-.002.007v.257a.253.253 0 0 1-.006.061.125.125 0 0 1-.017.04.074.074 0 0 1-.03.025.09.09 0 0 1-.04.009.104.104 0 0 1-.061-.022.328.328 0 0 1-.063-.063V.015L.079.008A.017.017 0 0 0 .072.004.045.045 0 0 0 .06 0a.167.167 0 0 0-.052.003A.017.017 0 0 0 0 .008.015.015 0 0 0 0 .015v.44L.001.46c.001.002.003.004.006.005A.027.027 0 0 0 .02.469.133.133 0 0 0 .065.466.011.011 0 0 0 .071.46.01.01 0 0 0 .073.455V.396c.024.028.05.048.073.061.025.013.05.02.075.02.03 0 .054-.005.074-.016a.13.13 0 0 0 .049-.04A.156.156 0 0 0 .37.364a.334.334 0 0 0 .008-.08V.015z"/></symbol><symbol id="f"><path d="M.287.053c0-.01 0-.017-.002-.023A.025.025 0 0 0 .28.018.038.038 0 0 0 .268.011a.186.186 0 0 0-.12-.002.098.098 0 0 0-.064.074.285.285 0 0 0-.006.066v.257H.016C.011.406.007.408.004.414A.055.055 0 0 0 0 .439l.001.016a.047.047 0 0 0 .003.01L.01.47a.015.015 0 0 0 .008.002h.06v.104L.08.583a.014.014 0 0 0 .006.005.04.04 0 0 0 .013.004A.162.162 0 0 0 .15.588.014.014 0 0 0 .156.583.011.011 0 0 0 .158.577V.473h.113L.278.47.283.465a.027.027 0 0 0 .003-.01L.287.439A.055.055 0 0 0 .283.414C.28.408.276.406.27.406H.158V.16c0-.03.005-.054.013-.07C.181.077.197.07.22.07a.093.093 0 0 1 .035.007.34.34 0 0 1 .02.007C.279.083.28.082.28.08.282.081.283.08.284.077a.042.042 0 0 0 .002-.01L.287.053z"/></symbol><symbol id="g"><path d="M.347.088A.193.193 0 0 0 .344.063.029.029 0 0 0 .341.056a.045.045 0 0 0-.008-.01.128.128 0 0 0-.02-.014A.225.225 0 0 0 .196 0a.212.212 0 0 0-.084.016A.162.162 0 0 0 .05.06a.216.216 0 0 0-.037.074.365.365 0 0 0-.013.1C0 .28.005.317.016.348c.01.031.025.057.043.077.019.02.04.034.065.044A.221.221 0 0 0 .312.454.114.114 0 0 0 .33.439.05.05 0 0 0 .338.43.028.028 0 0 0 .342.422.059.059 0 0 0 .34.37C.337.365.334.363.33.363.325.363.319.365.312.37a.216.216 0 0 1-.06.035.13.13 0 0 1-.048.009.102.102 0 0 1-.09-.045.227.227 0 0 1-.03-.13.32.32 0 0 1 .008-.074.157.157 0 0 1 .024-.054A.1.1 0 0 1 .154.08.127.127 0 0 1 .206.07c.019 0 .035.003.049.009a.207.207 0 0 1 .062.038C.324.123.33.125.333.125A.01.01 0 0 0 .34.124.014.014 0 0 0 .343.117.12.12 0 0 0 .346.089z"/></symbol><symbol id="h"><path d="M0 0z"/></symbol><symbol id="i"><path d="M.416.61A.049.049 0 0 0 .411.585C.408.58.404.578.4.578H.336A.099.099 0 0 0 .36.538.174.174 0 0 0 .355.428.136.136 0 0 0 .32.377a.156.156 0 0 0-.054-.03.212.212 0 0 0-.12-.004.11.11 0 0 0-.038.018.06.06 0 0 1-.02-.046c0-.011.006-.02.016-.028A.078.078 0 0 1 .146.274L.261.27a.23.23 0 0 0 .06-.01A.143.143 0 0 0 .37.237.103.103 0 0 0 .41.15.13.13 0 0 0 .36.045.186.186 0 0 0 .293.012.384.384 0 0 0 .106.01a.193.193 0 0 0-.06.025A.095.095 0 0 0 0 .118a.125.125 0 0 0 .016.06.15.15 0 0 0 .02.026.264.264 0 0 0 .027.025.076.076 0 0 0-.047.07c0 .02.005.038.013.054s.018.03.03.042a.145.145 0 0 0-.024.04.154.154 0 0 0-.009.056.17.17 0 0 0 .013.067.143.143 0 0 0 .089.082.205.205 0 0 0 .069.01.263.263 0 0 0 .07-.007h.132C.405.643.41.64.412.634A.052.052 0 0 0 .416.61M.29.494c0 .03-.008.053-.025.07C.25.581.225.589.195.589a.1.1 0 0 1-.04-.007.083.083 0 0 1-.047-.054.126.126 0 0 1-.005-.037C.103.462.111.44.127.423a.094.094 0 0 1 .07-.025c.016 0 .03.002.041.007a.08.08 0 0 1 .046.053.115.115 0 0 1 .006.036M.33.146a.049.049 0 0 1-.023.043.115.115 0 0 1-.062.017L.13.21A.21.21 0 0 1 .089.166a.08.08 0 0 1-.008-.02.102.102 0 0 1-.002-.02C.08.105.09.089.111.078a.2.2 0 0 1 .09-.016c.025 0 .045.002.061.007.017.004.03.01.04.018.01.008.017.017.022.027.004.01.007.02.007.032z"/></symbol><symbol id="j"><path d="M.652.015C.652.013.652.01.65.008A.017.017 0 0 0 .644.004.045.045 0 0 0 .63 0 .162.162 0 0 0 .58.004a.017.017 0 0 0-.006.004.012.012 0 0 0-.002.007v.267a.244.244 0 0 1-.005.051.117.117 0 0 1-.016.04.073.073 0 0 1-.027.025.082.082 0 0 1-.04.009.093.093 0 0 1-.055-.022.393.393 0 0 1-.062-.063V.015c0-.002 0-.005-.002-.007A.017.017 0 0 0 .357.004.045.045 0 0 0 .345 0a.162.162 0 0 0-.052.003.017.017 0 0 0-.006.004.015.015 0 0 0-.001.007v.267A.223.223 0 0 1 .28.333a.124.124 0 0 1-.016.04.073.073 0 0 1-.066.034.093.093 0 0 1-.056-.022.367.367 0 0 1-.061-.063V.015L.079.008A.017.017 0 0 0 .072.004.045.045 0 0 0 .06 0a.167.167 0 0 0-.052.003A.017.017 0 0 0 0 .008.015.015 0 0 0 0 .015v.44L.001.46c.001.002.003.004.006.005A.027.027 0 0 0 .02.469.133.133 0 0 0 .065.466.011.011 0 0 0 .071.46.01.01 0 0 0 .073.455V.396a.283.283 0 0 0 .072.061c.023.013.047.02.07.02A.172.172 0 0 0 .265.47.128.128 0 0 0 .35.39a.475.475 0 0 0 .08.067.153.153 0 0 0 .141.004.125.125 0 0 0 .047-.04.154.154 0 0 0 .025-.058.306.306 0 0 0 .008-.07V.015z"/></symbol><symbol id="k"><path d="M.36.021C.36.017.36.014.358.012a.027.027 0 0 0-.01-.004.102.102 0 0 0-.02-.002c-.01 0-.016 0-.021.002a.024.024 0 0 0-.011.004C.293.014.292.017.292.021v.044A.216.216 0 0 0 .227.017.169.169 0 0 0 .152 0 .202.202 0 0 0 .09.01.121.121 0 0 0 .01.077.142.142 0 0 0 0 .133C0 .159.005.18.015.198.025.216.04.232.06.244A.21.21 0 0 0 .128.27.42.42 0 0 0 .22.28h.06v.034a.17.17 0 0 1-.005.045.074.074 0 0 1-.048.052.183.183 0 0 1-.1 0A.264.264 0 0 1 .054.378.04.04 0 0 0 .038.372c-.003 0-.005 0-.007.002A.019.019 0 0 0 .025.38a.035.035 0 0 0-.003.01.096.096 0 0 0 0 .033.03.03 0 0 0 .01.013c.004.004.011.01.022.015a.295.295 0 0 0 .133.032.264.264 0 0 0 .081-.01A.12.12 0 0 0 .351.39a.25.25 0 0 0 .01-.073V.021m-.08.2H.21A.25.25 0 0 1 .155.217a.113.113 0 0 1-.04-.017A.068.068 0 0 1 .09.173.08.08 0 0 1 .083.138C.083.115.09.097.104.083a.087.087 0 0 1 .061-.02c.021 0 .04.005.059.016A.25.25 0 0 1 .28.13v.093z"/></symbol><symbol id="l"><path d="M.09.015C.09.013.09.01.088.008A.017.017 0 0 0 .082.004.045.045 0 0 0 .07 0a.167.167 0 0 0-.052.003.017.017 0 0 0-.007.004.015.015 0 0 0-.001.007v.44L.01.46a.014.014 0 0 0 .007.005.052.052 0 0 0 .012.003.162.162 0 0 0 .052-.003A.014.014 0 0 0 .088.46.011.011 0 0 0 .09.455v-.44M.1.603C.1.584.096.571.089.564.082.558.069.554.049.554.03.554.017.557.01.564.003.571 0 .584 0 .602c0 .019.004.032.01.039.008.006.021.01.04.01C.07.65.082.647.09.64.096.634.099.62.099.603z"/></symbol><symbol id="m"><path d="M.44.246A.332.332 0 0 0 .424.147.216.216 0 0 0 .383.069a.191.191 0 0 0-.07-.05A.245.245 0 0 0 .214 0 .255.255 0 0 0 .12.016a.173.173 0 0 0-.067.047.199.199 0 0 0-.04.075.347.347 0 0 0-.013.1c0 .035.005.068.014.098a.192.192 0 0 0 .112.129c.028.012.06.018.098.018A.252.252 0 0 0 .318.467.172.172 0 0 0 .386.42a.199.199 0 0 0 .04-.075.333.333 0 0 0 .013-.099M.354.241a.32.32 0 0 1-.006.067.163.163 0 0 1-.022.056.106.106 0 0 1-.04.037.133.133 0 0 1-.065.015.138.138 0 0 1-.062-.013.112.112 0 0 1-.042-.036.162.162 0 0 1-.025-.055.346.346 0 0 1-.001-.137.17.17 0 0 1 .022-.056.116.116 0 0 1 .106-.051c.023 0 .044.004.06.013.018.008.032.02.043.035.011.016.02.034.025.055a.292.292 0 0 1 .007.07z"/></symbol><use xlink:href="#c" transform="matrix(10.92 0 0 -10.92 45.747 71.951)"/><use xlink:href="#d" transform="matrix(10.92 0 0 -10.92 50.876 71.951)"/><use xlink:href="#e" transform="matrix(10.92 0 0 -10.92 56.634 71.882)"/><use xlink:href="#f" transform="matrix(10.92 0 0 -10.92 61.727 71.94)"/><use xlink:href="#d" transform="matrix(10.92 0 0 -10.92 65.662 71.951)"/><use xlink:href="#e" transform="matrix(10.92 0 0 -10.92 71.387 71.882)"/><use xlink:href="#g" transform="matrix(10.92 0 0 -10.92 76.784 71.951)"/><use xlink:href="#d" transform="matrix(10.92 0 0 -10.92 81.42 71.951)"/><use xlink:href="#h" transform="matrix(10.92 0 0 -10.92 86.296 71.85)"/><use xlink:href="#c" transform="matrix(10.92 0 0 -10.92 89.547 71.951)"/><use xlink:href="#d" transform="matrix(10.92 0 0 -10.92 94.676 71.951)"/><use xlink:href="#i" transform="matrix(10.92 0 0 -10.92 99.901 73.796)"/><use xlink:href="#j" transform="matrix(10.92 0 0 -10.92 105.578 71.882)"/><use xlink:href="#d" transform="matrix(10.92 0 0 -10.92 114.016 71.951)"/><use xlink:href="#e" transform="matrix(10.92 0 0 -10.92 119.74 71.882)"/><use xlink:href="#f" transform="matrix(10.92 0 0 -10.92 124.834 71.94)"/><use xlink:href="#k" transform="matrix(10.92 0 0 -10.92 128.807 71.951)"/><use xlink:href="#f" transform="matrix(10.92 0 0 -10.92 133.723 71.94)"/><use xlink:href="#l" transform="matrix(10.92 0 0 -10.92 137.87 71.882)"/><use xlink:href="#m" transform="matrix(10.92 0 0 -10.92 140.153 71.951)"/><use xlink:href="#e" transform="matrix(10.92 0 0 -10.92 146.244 71.882)"/></g></g><g data-name="P"><path d="M7.22 131.98h87.84V94.66H7.22z" fill="#ffc" fill-rule="evenodd"/><path stroke-width="1.5" stroke-miterlimit="10" fill="none" stroke="#b5b5b5" d="M7.22 131.98h87.84V94.66H7.22z"/></g><g data-name="Span"><clipPath id="n"><path transform="matrix(1 0 0 -1 -25 1393)" d="M0 0h841.92v1417.32H0z" fill-rule="evenodd"/></clipPath><g clip-path="url(#n)"><symbol id="o"><path d="M.379.021c0-.002 0-.004-.002-.006A.013.013 0 0 0 .371.01.044.044 0 0 0 .36.007a.145.145 0 0 0-.036 0 .043.043 0 0 0-.01.003.013.013 0 0 0-.006.005.015.015 0 0 0-.001.006V.08A.274.274 0 0 0 .23.019.17.17 0 0 0 .083.015a.131.131 0 0 0-.048.04.167.167 0 0 0-.027.058A.366.366 0 0 0 0 .194v.267l.001.006a.014.014 0 0 0 .007.005.033.033 0 0 0 .013.003.162.162 0 0 0 .051-.003A.014.014 0 0 0 .08.467.01.01 0 0 0 .081.461V.205C.081.18.083.16.086.143a.125.125 0 0 1 .018-.04.085.085 0 0 1 .029-.025.09.09 0 0 1 .04-.009c.021 0 .041.007.06.022.021.014.042.035.065.063V.46l.001.006a.014.014 0 0 0 .007.005.032.032 0 0 0 .012.003A.167.167 0 0 0 .37.472.014.014 0 0 0 .376.467.009.009 0 0 0 .38.461V.02z"/></symbol><symbol id="p"><path d="M.257.426a.279.279 0 0 0-.003-.03A.018.018 0 0 0 .25.39C.25.388.247.388.245.388c-.003 0-.006 0-.01.002a.082.082 0 0 1-.013.004.132.132 0 0 1-.015.004.088.088 0 0 1-.02.002.062.062 0 0 1-.023-.004.097.097 0 0 1-.025-.017A.66.66 0 0 1 .08.304V.015L.079.008A.017.017 0 0 0 .072.004.045.045 0 0 0 .06 0a.167.167 0 0 0-.052.003A.017.017 0 0 0 0 .008.015.015 0 0 0 0 .015v.44L.001.46c.001.002.003.004.006.005A.027.027 0 0 0 .02.469.133.133 0 0 0 .065.466.011.011 0 0 0 .071.46.01.01 0 0 0 .073.455V.39a.361.361 0 0 0 .033.043c.011.01.021.02.03.025.01.007.02.011.029.014a.106.106 0 0 0 .042.003A.108.108 0 0 0 .24.469.033.033 0 0 0 .25.464.013.013 0 0 0 .254.459L.255.454A.243.243 0 0 0 .256.426z"/></symbol><symbol id="q"><path d="M.328.037A.12.12 0 0 0 .327.02.038.038 0 0 0 .323.009.016.016 0 0 0 .318.002.013.013 0 0 0 .31 0H.03A.036.036 0 0 0 .01.007C.003.013 0 .021 0 .034V.62c0 .003 0 .005.002.007A.012.012 0 0 0 .009.63a.117.117 0 0 0 .053.003C.068.633.072.632.075.63A.012.012 0 0 0 .082.626.012.012 0 0 0 .084.619V.073h.227C.313.073.316.072.318.07A.013.013 0 0 0 .323.064a.028.028 0 0 0 .004-.01.12.12 0 0 0 0-.017z"/></symbol><use xlink:href="#c" transform="matrix(10.08 0 0 -10.08 16.821 104.634)"/><use xlink:href="#m" transform="matrix(10.08 0 0 -10.08 21.582 104.634)"/><use xlink:href="#o" transform="matrix(10.08 0 0 -10.08 27.15 104.634)"/><use xlink:href="#p" transform="matrix(10.08 0 0 -10.08 32.466 104.57)"/><use xlink:href="#g" transform="matrix(10.08 0 0 -10.08 35.623 104.634)"/><use xlink:href="#d" transform="matrix(10.08 0 0 -10.08 39.952 104.634)"/><use xlink:href="#h" transform="matrix(10.08 0 0 -10.08 44.515 104.54)"/><use xlink:href="#q" transform="matrix(10.08 0 0 -10.08 47.538 104.54)"/><use xlink:href="#k" transform="matrix(10.08 0 0 -10.08 51.348 104.634)"/><use xlink:href="#e" transform="matrix(10.08 0 0 -10.08 56.477 104.57)"/><use xlink:href="#i" transform="matrix(10.08 0 0 -10.08 61.236 106.337)"/><use xlink:href="#o" transform="matrix(10.08 0 0 -10.08 66.492 104.634)"/><use xlink:href="#k" transform="matrix(10.08 0 0 -10.08 71.508 104.634)"/><use xlink:href="#i" transform="matrix(10.08 0 0 -10.08 76.104 106.337)"/><use xlink:href="#d" transform="matrix(10.08 0 0 -10.08 81.089 104.634)"/><use xlink:href="#h" transform="matrix(10.08 0 0 -10.08 85.651 104.54)"/></g></g><g data-name="Span"><clipPath id="r"><path transform="matrix(1 0 0 -1 -25 1393)" d="M0 0h841.92v1417.32H0z" fill-rule="evenodd"/></clipPath><g clip-path="url(#r)"><symbol id="s"><path d="M.476.243A.291.291 0 0 0 .46.14.203.203 0 0 0 .335.016.301.301 0 0 0 .233 0a.285.285 0 0 0-.095.015.203.203 0 0 0-.074.045.198.198 0 0 0-.047.074A.292.292 0 0 0 0 .236v.392c0 .003 0 .005.002.007A.012.012 0 0 0 .009.64a.115.115 0 0 0 .033.004A.117.117 0 0 0 .075.64.012.012 0 0 0 .082.635.012.012 0 0 0 .083.628V.247c0-.03.004-.055.011-.077A.149.149 0 0 1 .125.115.136.136 0 0 1 .174.083C.193.075.214.072.238.072c.025 0 .046.003.065.01C.323.09.34.1.352.116a.14.14 0 0 1 .03.053c.007.021.01.046.01.074v.386c0 .003.001.005.003.007A.012.012 0 0 0 .4.64a.12.12 0 0 0 .053.003L.467.64A.012.012 0 0 0 .474.635.01.01 0 0 0 .476.628V.243z"/></symbol><symbol id="t"><path d="M.08.015.08.008A.017.017 0 0 0 .072.004.045.045 0 0 0 .06 0a.167.167 0 0 0-.052.003A.017.017 0 0 0 0 .008.015.015 0 0 0 0 .015v.652l.001.007A.014.014 0 0 0 .008.68.052.052 0 0 0 .02.682.162.162 0 0 0 .072.68.014.014 0 0 0 .08.674.012.012 0 0 0 .08.667V.015z"/></symbol><symbol id="u"><path d="M.404.021c0-.002 0-.004-.002-.006C.402.013.4.01.396.01a.12.12 0 0 0-.056 0 .014.014 0 0 0-.006.005.012.012 0 0 0-.001.006V.08A.295.295 0 0 0 .26.02.163.163 0 0 0 .18 0a.17.17 0 0 0-.083.019.16.16 0 0 0-.055.05.23.23 0 0 0-.031.076.415.415 0 0 0 .002.193c.008.03.02.057.036.078a.16.16 0 0 0 .06.05.183.183 0 0 0 .081.017C.215.483.24.477.26.466a.243.243 0 0 0 .064-.05v.256c0 .002 0 .004.002.006a.011.011 0 0 0 .007.005.109.109 0 0 0 .032.004.112.112 0 0 0 .032-.004.01.01 0 0 0 .006-.005.01.01 0 0 0 .002-.006v-.65M.324.33A.308.308 0 0 1 .26.392a.108.108 0 0 1-.064.022.09.09 0 0 1-.052-.015A.115.115 0 0 1 .109.36a.194.194 0 0 1-.02-.054A.427.427 0 0 1 .088.18.196.196 0 0 1 .106.123.11.11 0 0 1 .14.083a.106.106 0 0 1 .114.004l.033.027a.43.43 0 0 1 .036.04v.177z"/></symbol><use xlink:href="#s" transform="matrix(10.104 0 0 -10.104 31.11 116.754)"/><use xlink:href="#e" transform="matrix(10.104 0 0 -10.104 37.514 116.69)"/><use xlink:href="#k" transform="matrix(10.104 0 0 -10.104 42.487 116.754)"/><use xlink:href="#t" transform="matrix(10.104 0 0 -10.104 47.587 116.69)"/><use xlink:href="#l" transform="matrix(10.104 0 0 -10.104 49.772 116.69)"/><use xlink:href="#i" transform="matrix(10.104 0 0 -10.104 51.661 118.46)"/><use xlink:href="#e" transform="matrix(10.104 0 0 -10.104 56.944 116.69)"/><use xlink:href="#d" transform="matrix(10.104 0 0 -10.104 61.952 116.754)"/><use xlink:href="#u" transform="matrix(10.104 0 0 -10.104 66.999 116.754)"/><use xlink:href="#h" transform="matrix(10.104 0 0 -10.104 71.79 116.66)"/></g></g><g data-name="Span"><clipPath id="v"><path transform="matrix(1 0 0 -1 -25 1393)" d="M0 0h841.92v1417.32H0z" fill-rule="evenodd"/></clipPath><g clip-path="url(#v)"><symbol id="w"><path d="M.311.141a.137.137 0 0 0-.013-.06.12.12 0 0 0-.035-.044.16.16 0 0 0-.055-.028.248.248 0 0 0-.114-.005.274.274 0 0 0-.067.02.09.09 0 0 0-.017.012.028.028 0 0 0-.008.013A.093.093 0 0 0 0 .073.105.105 0 0 0 .003.1a.01.01 0 0 0 .004.005.011.011 0 0 0 .007.002C.017.106.022.104.029.1A.525.525 0 0 1 .092.07.167.167 0 0 1 .177.07c.011.003.02.007.03.013a.057.057 0 0 1 .018.022C.229.112.23.123.23.134a.05.05 0 0 1-.01.032.088.088 0 0 1-.024.022.196.196 0 0 1-.035.018A10.87 10.87 0 0 1 .08.24a.163.163 0 0 0-.036.026.12.12 0 0 0-.025.036.124.124 0 0 0-.01.05c0 .018.004.034.01.05.007.016.017.03.03.041.014.012.03.022.05.03A.21.21 0 0 0 .207.48.241.241 0 0 0 .262.463.081.081 0 0 0 .277.454.022.022 0 0 0 .284.447.049.049 0 0 0 .288.431V.405a.027.027 0 0 0-.003-.01.013.013 0 0 0-.004-.006.01.01 0 0 0-.005-.001C.273.387.269.389.263.392A.211.211 0 0 1 .21.415a.139.139 0 0 1-.076 0A.067.067 0 0 1 .108.403a.057.057 0 0 1-.015-.02.065.065 0 0 1-.005-.025c0-.013.003-.024.01-.032A.095.095 0 0 1 .123.302.214.214 0 0 1 .159.285 3.48 3.48 0 0 0 .24.25.151.151 0 0 0 .276.225.11.11 0 0 0 .311.141z"/></symbol><use xlink:href="#c" transform="matrix(10.104 0 0 -10.104 30.382 128.874)"/><use xlink:href="#d" transform="matrix(10.104 0 0 -10.104 35.159 128.874)"/><use xlink:href="#e" transform="matrix(10.104 0 0 -10.104 40.487 128.81)"/><use xlink:href="#f" transform="matrix(10.104 0 0 -10.104 45.2 128.864)"/><use xlink:href="#d" transform="matrix(10.104 0 0 -10.104 48.84 128.874)"/><use xlink:href="#e" transform="matrix(10.104 0 0 -10.104 54.168 128.81)"/><use xlink:href="#g" transform="matrix(10.104 0 0 -10.104 59.161 128.874)"/><use xlink:href="#d" transform="matrix(10.104 0 0 -10.104 63.45 128.874)"/><use xlink:href="#w" transform="matrix(10.104 0 0 -10.104 68.453 128.874)"/></g></g><g data-name="P"><path d="M102.62 131.98h87.84V94.66h-87.84z" fill="#ffc" fill-rule="evenodd"/><path stroke-width="1.5" stroke-miterlimit="10" fill="none" stroke="#b5b5b5" d="M102.62 131.98h87.84V94.66h-87.84z"/></g><g data-name="Span"><clipPath id="x"><path transform="matrix(1 0 0 -1 -25 1393)" d="M0 0h841.92v1417.32H0z" fill-rule="evenodd"/></clipPath><g clip-path="url(#x)"><symbol id="y"><path d="M.473.599.472.583A.033.033 0 0 0 .468.57.013.013 0 0 0 .463.565.012.012 0 0 0 .456.563H.278V.016c0-.003 0-.005-.002-.007A.014.014 0 0 0 .27.004.112.112 0 0 0 .237 0a.117.117 0 0 0-.034.004.014.014 0 0 0-.007.005.012.012 0 0 0-.002.007v.547H.017L.009.565a.015.015 0 0 0-.005.006A.058.058 0 0 0 0 .6l.001.016a.057.057 0 0 0 .003.011.014.014 0 0 0 .005.007.015.015 0 0 0 .008.002h.44c.002 0 .004 0 .006-.002A.013.013 0 0 0 .468.626.033.033 0 0 0 .472.615V.599z"/></symbol><use xlink:href="#y" transform="matrix(10.08 0 0 -10.08 112.614 104.57)"/><use xlink:href="#k" transform="matrix(10.08 0 0 -10.08 117.902 104.634)"/><use xlink:href="#p" transform="matrix(10.08 0 0 -10.08 123.03 104.57)"/><use xlink:href="#i" transform="matrix(10.08 0 0 -10.08 126.006 106.337)"/><use xlink:href="#d" transform="matrix(10.08 0 0 -10.08 130.99 104.634)"/><use xlink:href="#f" transform="matrix(10.08 0 0 -10.08 135.715 104.624)"/><use xlink:href="#h" transform="matrix(10.08 0 0 -10.08 138.93 104.54)"/><use xlink:href="#q" transform="matrix(10.08 0 0 -10.08 142.054 104.54)"/><use xlink:href="#k" transform="matrix(10.08 0 0 -10.08 145.894 104.634)"/><use xlink:href="#e" transform="matrix(10.08 0 0 -10.08 150.962 104.57)"/><use xlink:href="#i" transform="matrix(10.08 0 0 -10.08 155.762 106.337)"/><use xlink:href="#o" transform="matrix(10.08 0 0 -10.08 161.007 104.634)"/><use xlink:href="#k" transform="matrix(10.08 0 0 -10.08 166.024 104.634)"/><use xlink:href="#i" transform="matrix(10.08 0 0 -10.08 170.62 106.337)"/><use xlink:href="#d" transform="matrix(10.08 0 0 -10.08 175.605 104.634)"/><use xlink:href="#h" transform="matrix(10.08 0 0 -10.08 180.167 104.54)"/></g></g><g data-name="Span"><clipPath id="z"><path transform="matrix(1 0 0 -1 -25 1393)" d="M0 0h841.92v1417.32H0z" fill-rule="evenodd"/></clipPath><g clip-path="url(#z)"><use xlink:href="#s" transform="matrix(10.104 0 0 -10.104 126.459 116.754)"/><use xlink:href="#e" transform="matrix(10.104 0 0 -10.104 132.862 116.69)"/><use xlink:href="#k" transform="matrix(10.104 0 0 -10.104 137.835 116.754)"/><use xlink:href="#t" transform="matrix(10.104 0 0 -10.104 142.935 116.69)"/><use xlink:href="#l" transform="matrix(10.104 0 0 -10.104 145.12 116.69)"/><use xlink:href="#i" transform="matrix(10.104 0 0 -10.104 147.009 118.46)"/><use xlink:href="#e" transform="matrix(10.104 0 0 -10.104 152.292 116.69)"/><use xlink:href="#d" transform="matrix(10.104 0 0 -10.104 157.3 116.754)"/><use xlink:href="#u" transform="matrix(10.104 0 0 -10.104 162.347 116.754)"/><use xlink:href="#h" transform="matrix(10.104 0 0 -10.104 167.137 116.66)"/></g></g><g data-name="Span"><clipPath id="A"><path transform="matrix(1 0 0 -1 -25 1393)" d="M0 0h841.92v1417.32H0z" fill-rule="evenodd"/></clipPath><g clip-path="url(#A)"><use xlink:href="#c" transform="matrix(10.104 0 0 -10.104 125.73 128.874)"/><use xlink:href="#d" transform="matrix(10.104 0 0 -10.104 130.507 128.874)"/><use xlink:href="#e" transform="matrix(10.104 0 0 -10.104 135.835 128.81)"/><use xlink:href="#f" transform="matrix(10.104 0 0 -10.104 140.547 128.864)"/><use xlink:href="#d" transform="matrix(10.104 0 0 -10.104 144.188 128.874)"/><use xlink:href="#e" transform="matrix(10.104 0 0 -10.104 149.516 128.81)"/><use xlink:href="#g" transform="matrix(10.104 0 0 -10.104 154.51 128.874)"/><use xlink:href="#d" transform="matrix(10.104 0 0 -10.104 158.798 128.874)"/><use xlink:href="#w" transform="matrix(10.104 0 0 -10.104 163.801 128.874)"/></g></g><g data-name="P"><path d="M6.26 40.9H94.1V3.58H6.26z" fill="#ffc" fill-rule="evenodd"/><path stroke-width="1.5" stroke-miterlimit="10" fill="none" stroke="#b5b5b5" d="M6.26 40.9H94.1V3.58H6.26z"/></g><g data-name="Span"><clipPath id="B"><path transform="matrix(1 0 0 -1 -25 1393)" d="M0 0h841.92v1417.32H0z" fill-rule="evenodd"/></clipPath><g clip-path="url(#B)"><symbol id="C"><path d="M.565.333A.49.49 0 0 0 .547.194.29.29 0 0 0 .493.09a.237.237 0 0 0-.09-.066A.322.322 0 0 0 .276 0a.33.33 0 0 0-.123.021.221.221 0 0 0-.086.062.266.266 0 0 0-.05.1.52.52 0 0 0 .001.275.28.28 0 0 0 .054.103c.024.029.054.05.09.066A.317.317 0 0 0 .29.65.322.322 0 0 0 .411.63.217.217 0 0 0 .497.567a.254.254 0 0 0 .05-.1.49.49 0 0 0 .018-.135M.477.327a.479.479 0 0 1-.01.1.22.22 0 0 1-.032.08.15.15 0 0 1-.059.053.2.2 0 0 1-.092.019.188.188 0 0 1-.092-.02.175.175 0 0 1-.06-.056.233.233 0 0 1-.033-.08.529.529 0 0 1 0-.198.232.232 0 0 1 .03-.081.153.153 0 0 1 .059-.053.207.207 0 0 1 .093-.018c.037 0 .067.007.093.02a.168.168 0 0 1 .06.055C.45.172.46.198.467.23c.006.031.01.063.01.098z"/></symbol><symbol id="D"><path d="M.388.024A.025.025 0 0 0 .392.013C.392.01.39.007.387.005A.032.032 0 0 0 .373.001.222.222 0 0 0 .31.002a.029.029 0 0 0-.008.005A.044.044 0 0 0 .3.014L.193.188.088.014A.03.03 0 0 0 .083.007.021.021 0 0 0 .076.003.196.196 0 0 0 .017.002a.03.03 0 0 0-.013.003A.009.009 0 0 0 0 .013C0 .016.002.02.005.024L.142.24l-.13.206a.031.031 0 0 0-.004.012c0 .003.001.005.004.007A.03.03 0 0 0 .026.47.265.265 0 0 0 .088.467.017.017 0 0 0 .095.463.028.028 0 0 0 .1.457L.2.293.3.457a.035.035 0 0 0 .005.005.018.018 0 0 0 .006.004.178.178 0 0 0 .07-.001.007.007 0 0 0 .003-.007A.031.031 0 0 0 .38.445L.252.241.388.024z"/></symbol><use xlink:href="#C" transform="matrix(10.08 0 0 -10.08 24.567 19.673)"/><use xlink:href="#p" transform="matrix(10.08 0 0 -10.08 31.546 19.61)"/><use xlink:href="#l" transform="matrix(10.08 0 0 -10.08 34.925 19.61)"/><use xlink:href="#i" transform="matrix(10.08 0 0 -10.08 36.81 21.376)"/><use xlink:href="#l" transform="matrix(10.08 0 0 -10.08 41.992 19.61)"/><use xlink:href="#e" transform="matrix(10.08 0 0 -10.08 44.368 19.61)"/><use xlink:href="#k" transform="matrix(10.08 0 0 -10.08 49.36 19.673)"/><use xlink:href="#t" transform="matrix(10.08 0 0 -10.08 54.448 19.61)"/><use xlink:href="#h" transform="matrix(10.08 0 0 -10.08 55.973 19.58)"/><use xlink:href="#y" transform="matrix(10.08 0 0 -10.08 58.436 19.61)"/><use xlink:href="#d" transform="matrix(10.08 0 0 -10.08 63.729 19.673)"/><use xlink:href="#D" transform="matrix(10.08 0 0 -10.08 68.513 19.61)"/><use xlink:href="#f" transform="matrix(10.08 0 0 -10.08 72.798 19.664)"/></g></g><g data-name="Span"><clipPath id="E"><path transform="matrix(1 0 0 -1 -25 1393)" d="M0 0h841.92v1417.32H0z" fill-rule="evenodd"/></clipPath><g clip-path="url(#E)"><symbol id="F"><path d="M.421.016.42.009C.419.007.417.005.414.004A.054.054 0 0 0 .4 0a.222.222 0 0 0-.057.003.022.022 0 0 0-.008.006.046.046 0 0 0-.004.01L.272.169a.478.478 0 0 1-.021.046.14.14 0 0 1-.026.037.103.103 0 0 1-.036.024.125.125 0 0 1-.049.009H.084v-.27A.01.01 0 0 0 .082.01.014.014 0 0 0 .075.004.112.112 0 0 0 .042 0a.12.12 0 0 0-.033.004.014.014 0 0 0-.007.005A.012.012 0 0 0 0 .016V.6c0 .012.003.021.01.026A.035.035 0 0 0 .03.635h.135A.438.438 0 0 0 .234.63.238.238 0 0 0 .298.61.153.153 0 0 0 .346.576.136.136 0 0 0 .374.528a.173.173 0 0 0 .01-.06.174.174 0 0 0-.009-.057.137.137 0 0 0-.024-.044.166.166 0 0 0-.039-.034.248.248 0 0 0-.05-.023C.272.305.282.3.29.292A.221.221 0 0 0 .334.233.55.55 0 0 0 .354.19L.411.051A.28.28 0 0 0 .42.016M.295.459a.112.112 0 0 1-.017.063.093.093 0 0 1-.055.037.435.435 0 0 1-.068.006H.084V.353h.082c.022 0 .041.002.057.007.016.006.03.013.04.023.011.01.02.021.024.034a.113.113 0 0 1 .008.042z"/></symbol><symbol id="G"><path d="M.664.456.663.447A.106.106 0 0 0 .659.435L.53.018a.02.02 0 0 0-.004-.01.02.02 0 0 0-.009-.005.253.253 0 0 0-.082 0A.02.02 0 0 0 .427.01.023.023 0 0 0 .42.018L.33.336v.005L.326.336.242.018A.02.02 0 0 0 .228.003a.253.253 0 0 0-.082 0A.02.02 0 0 0 .137.01a.023.023 0 0 0-.004.009L.004.435A.106.106 0 0 0 0 .455c0 .003 0 .006.002.007a.012.012 0 0 0 .006.005.313.313 0 0 0 .066 0A.01.01 0 0 0 .082.46.03.03 0 0 0 .084.454L.19.092.191.087l.001.005.098.362.002.007A.013.013 0 0 0 .3.466a.167.167 0 0 0 .063 0A.012.012 0 0 0 .37.462.022.022 0 0 0 .372.455L.477.092V.087l.001.005.105.362.002.007a.013.013 0 0 0 .007.005.185.185 0 0 0 .063 0A.013.013 0 0 0 .663.463.01.01 0 0 0 .664.456z"/></symbol><symbol id="H"><path d="M.332.599V.583A.033.033 0 0 0 .327.57.017.017 0 0 0 .322.565.011.011 0 0 0 .315.563H.084V.35h.219L.309.347A.013.013 0 0 0 .315.34a.028.028 0 0 0 .003-.01.113.113 0 0 0 0-.033.032.032 0 0 0-.003-.01A.022.022 0 0 0 .309.28.011.011 0 0 0 .303.279H.084V.016c0-.003 0-.005-.002-.007A.014.014 0 0 0 .075.004.115.115 0 0 0 .042 0a.117.117 0 0 0-.033.004.014.014 0 0 0-.007.005A.014.014 0 0 0 0 .016V.6c0 .012.003.021.01.026A.035.035 0 0 0 .03.635h.284c.003 0 .005 0 .007-.002A.016.016 0 0 0 .328.626.033.033 0 0 0 .33.615L.332.599z"/></symbol><use xlink:href="#F" transform="matrix(10.08 0 0 -10.08 31.767 31.73)"/><use xlink:href="#k" transform="matrix(10.08 0 0 -10.08 36.887 31.793)"/><use xlink:href="#G" transform="matrix(10.08 0 0 -10.08 41.523 31.73)"/><use xlink:href="#h" transform="matrix(10.08 0 0 -10.08 48.47 31.7)"/><use xlink:href="#H" transform="matrix(10.08 0 0 -10.08 51.695 31.73)"/><use xlink:href="#l" transform="matrix(10.08 0 0 -10.08 56.17 31.73)"/><use xlink:href="#t" transform="matrix(10.08 0 0 -10.08 58.546 31.73)"/><use xlink:href="#d" transform="matrix(10.08 0 0 -10.08 60.53 31.793)"/><use xlink:href="#w" transform="matrix(10.08 0 0 -10.08 65.49 31.793)"/></g></g><g data-name="P"><path d="M102.62 40.9h87.84V3.58h-87.84z" fill="#ffc" fill-rule="evenodd"/><path stroke-width="1.5" stroke-miterlimit="10" fill="none" stroke="#b5b5b5" d="M102.62 40.9h87.84V3.58h-87.84z"/></g><g data-name="Span"><clipPath id="I"><path transform="matrix(1 0 0 -1 -25 1393)" d="M0 0h841.92v1417.32H0z" fill-rule="evenodd"/></clipPath><g clip-path="url(#I)"><use xlink:href="#y" transform="matrix(10.08 0 0 -10.08 113.454 19.61)"/><use xlink:href="#p" transform="matrix(10.08 0 0 -10.08 119.042 19.61)"/><use xlink:href="#k" transform="matrix(10.08 0 0 -10.08 122.26 19.673)"/><use xlink:href="#e" transform="matrix(10.08 0 0 -10.08 127.338 19.61)"/><use xlink:href="#w" transform="matrix(10.08 0 0 -10.08 132.275 19.673)"/><use xlink:href="#t" transform="matrix(10.08 0 0 -10.08 136.571 19.61)"/><use xlink:href="#k" transform="matrix(10.08 0 0 -10.08 138.56 19.673)"/><use xlink:href="#f" transform="matrix(10.08 0 0 -10.08 143.097 19.664)"/><use xlink:href="#l" transform="matrix(10.08 0 0 -10.08 146.926 19.61)"/><use xlink:href="#m" transform="matrix(10.08 0 0 -10.08 148.992 19.673)"/><use xlink:href="#e" transform="matrix(10.08 0 0 -10.08 154.584 19.61)"/><use xlink:href="#h" transform="matrix(10.08 0 0 -10.08 159.123 19.58)"/><use xlink:href="#y" transform="matrix(10.08 0 0 -10.08 161.818 19.61)"/><use xlink:href="#d" transform="matrix(10.08 0 0 -10.08 167.11 19.673)"/><use xlink:href="#D" transform="matrix(10.08 0 0 -10.08 171.895 19.61)"/><use xlink:href="#f" transform="matrix(10.08 0 0 -10.08 176.18 19.664)"/></g></g><g data-name="Span"><clipPath id="J"><path transform="matrix(1 0 0 -1 -25 1393)" d="M0 0h841.92v1417.32H0z" fill-rule="evenodd"/></clipPath><g clip-path="url(#J)"><use xlink:href="#F" transform="matrix(10.08 0 0 -10.08 128.147 31.73)"/><use xlink:href="#k" transform="matrix(10.08 0 0 -10.08 133.267 31.793)"/><use xlink:href="#G" transform="matrix(10.08 0 0 -10.08 137.903 31.73)"/><use xlink:href="#h" transform="matrix(10.08 0 0 -10.08 144.809 31.7)"/><use xlink:href="#H" transform="matrix(10.08 0 0 -10.08 148.044 31.73)"/><use xlink:href="#l" transform="matrix(10.08 0 0 -10.08 152.52 31.73)"/><use xlink:href="#t" transform="matrix(10.08 0 0 -10.08 154.896 31.73)"/><use xlink:href="#d" transform="matrix(10.08 0 0 -10.08 156.879 31.793)"/><use xlink:href="#w" transform="matrix(10.08 0 0 -10.08 161.84 31.793)"/></g></g><g data-name="P"><path d="M6.26 234.46H94.1v-37.32H6.26z" fill="#ffc" fill-rule="evenodd"/><path stroke-width="1.5" stroke-miterlimit="10" fill="none" stroke="#b5b5b5" d="M6.26 234.46H94.1v-37.32H6.26z"/></g><g data-name="Span"><clipPath id="K"><path transform="matrix(1 0 0 -1 -25 1393)" d="M0 0h841.92v1417.32H0z" fill-rule="evenodd"/></clipPath><g clip-path="url(#K)"><use xlink:href="#c" transform="matrix(10.08 0 0 -10.08 16.27 213.203)"/><use xlink:href="#m" transform="matrix(10.08 0 0 -10.08 21.03 213.203)"/><use xlink:href="#o" transform="matrix(10.08 0 0 -10.08 26.597 213.203)"/><use xlink:href="#p" transform="matrix(10.08 0 0 -10.08 31.914 213.14)"/><use xlink:href="#g" transform="matrix(10.08 0 0 -10.08 35.071 213.203)"/><use xlink:href="#d" transform="matrix(10.08 0 0 -10.08 39.4 213.203)"/><use xlink:href="#h" transform="matrix(10.08 0 0 -10.08 43.963 213.11)"/><use xlink:href="#c" transform="matrix(10.08 0 0 -10.08 46.49 213.203)"/><use xlink:href="#d" transform="matrix(10.08 0 0 -10.08 51.265 213.203)"/><use xlink:href="#e" transform="matrix(10.08 0 0 -10.08 56.58 213.14)"/><use xlink:href="#f" transform="matrix(10.08 0 0 -10.08 61.281 213.194)"/><use xlink:href="#d" transform="matrix(10.08 0 0 -10.08 64.953 213.203)"/><use xlink:href="#e" transform="matrix(10.08 0 0 -10.08 70.268 213.14)"/><use xlink:href="#g" transform="matrix(10.08 0 0 -10.08 75.25 213.203)"/><use xlink:href="#d" transform="matrix(10.08 0 0 -10.08 79.58 213.203)"/><use xlink:href="#h" transform="matrix(10.08 0 0 -10.08 84.141 213.11)"/></g></g><g data-name="Span"><clipPath id="L"><path transform="matrix(1 0 0 -1 -25 1393)" d="M0 0h841.92v1417.32H0z" fill-rule="evenodd"/></clipPath><g clip-path="url(#L)"><symbol id="M"><path d="M.352.035.35.019a.032.032 0 0 0-.004-.01.016.016 0 0 0-.006-.007A.012.012 0 0 0 .334 0H.031A.036.036 0 0 0 .01.007C.003.013 0 .021 0 .034v.564C0 .61.003.619.01.624A.035.035 0 0 0 .03.632h.3c.003 0 .005 0 .007-.002A.013.013 0 0 0 .343.624.073.073 0 0 0 .347.597.075.075 0 0 0 .344.57.013.013 0 0 0 .338.564.012.012 0 0 0 .33.562H.084V.364h.212A.01.01 0 0 0 .303.36.013.013 0 0 0 .308.355a.028.028 0 0 0 .004-.01.116.116 0 0 0 0-.032.027.027 0 0 0-.004-.01.013.013 0 0 0-.005-.006.015.015 0 0 0-.007-.001H.084V.07h.25C.337.07.34.07.341.068A.016.016 0 0 0 .347.062.028.028 0 0 0 .351.05a.11.11 0 0 0 0-.016z"/></symbol><symbol id="N"><path d="M.404.247A.387.387 0 0 0 .392.144.223.223 0 0 0 .355.066a.16.16 0 0 0-.06-.049.182.182 0 0 0-.153 0 .424.424 0 0 0-.07.058V.021L.068.015A.014.014 0 0 0 .063.01.113.113 0 0 0 .019.008.066.066 0 0 0 .007.01C.004.01.002.013.001.015A.015.015 0 0 0 0 .02v.653L.001.68a.014.014 0 0 0 .007.005.052.052 0 0 0 .013.002.162.162 0 0 0 .051-.002A.014.014 0 0 0 .08.68.012.012 0 0 0 .08.674V.41a.34.34 0 0 0 .037.033A.22.22 0 0 0 .19.48a.17.17 0 0 0 .038.004c.031 0 .059-.006.081-.02a.155.155 0 0 0 .055-.05.218.218 0 0 0 .032-.075.409.409 0 0 0 .01-.09M.318.237a.392.392 0 0 1-.005.065.18.18 0 0 1-.018.056.107.107 0 0 1-.033.04.087.087 0 0 1-.053.015.11.11 0 0 1-.061-.02.242.242 0 0 1-.033-.026.398.398 0 0 1-.035-.04V.152A.34.34 0 0 1 .144.09.109.109 0 0 1 .207.07a.09.09 0 0 1 .052.014.11.11 0 0 1 .034.039c.01.016.016.034.02.054.004.02.006.04.006.06z"/></symbol><use xlink:href="#M" transform="matrix(10.08 0 0 -10.08 25.767 225.23)"/><use xlink:href="#j" transform="matrix(10.08 0 0 -10.08 30.592 225.26)"/><use xlink:href="#N" transform="matrix(10.08 0 0 -10.08 38.646 225.323)"/><use xlink:href="#d" transform="matrix(10.08 0 0 -10.08 43.643 225.323)"/><use xlink:href="#u" transform="matrix(10.08 0 0 -10.08 48.677 225.323)"/><use xlink:href="#u" transform="matrix(10.08 0 0 -10.08 53.97 225.323)"/><use xlink:href="#l" transform="matrix(10.08 0 0 -10.08 59.443 225.26)"/><use xlink:href="#e" transform="matrix(10.08 0 0 -10.08 61.79 225.26)"/><use xlink:href="#i" transform="matrix(10.08 0 0 -10.08 66.59 227.026)"/><use xlink:href="#w" transform="matrix(10.08 0 0 -10.08 71.505 225.323)"/></g></g><g data-name="P"><path d="M101.54 234.46h87.84v-37.32h-87.84z" fill="#ffc" fill-rule="evenodd"/><path stroke-width="1.5" stroke-miterlimit="10" fill="none" stroke="#b5b5b5" d="M101.54 234.46h87.84v-37.32h-87.84z"/></g><g data-name="Span"><clipPath id="O"><path transform="matrix(1 0 0 -1 -25 1393)" d="M0 0h841.92v1417.32H0z" fill-rule="evenodd"/></clipPath><g clip-path="url(#O)"><use xlink:href="#y" transform="matrix(10.08 0 0 -10.08 112.064 213.14)"/><use xlink:href="#k" transform="matrix(10.08 0 0 -10.08 117.352 213.203)"/><use xlink:href="#p" transform="matrix(10.08 0 0 -10.08 122.48 213.14)"/><use xlink:href="#i" transform="matrix(10.08 0 0 -10.08 125.456 214.906)"/><use xlink:href="#d" transform="matrix(10.08 0 0 -10.08 130.44 213.203)"/><use xlink:href="#f" transform="matrix(10.08 0 0 -10.08 135.165 213.194)"/><use xlink:href="#h" transform="matrix(10.08 0 0 -10.08 138.38 213.11)"/><use xlink:href="#c" transform="matrix(10.08 0 0 -10.08 141.007 213.203)"/><use xlink:href="#d" transform="matrix(10.08 0 0 -10.08 145.792 213.203)"/><use xlink:href="#e" transform="matrix(10.08 0 0 -10.08 151.108 213.14)"/><use xlink:href="#f" transform="matrix(10.08 0 0 -10.08 155.809 213.194)"/><use xlink:href="#d" transform="matrix(10.08 0 0 -10.08 159.481 213.203)"/><use xlink:href="#e" transform="matrix(10.08 0 0 -10.08 164.796 213.14)"/><use xlink:href="#g" transform="matrix(10.08 0 0 -10.08 169.778 213.203)"/><use xlink:href="#d" transform="matrix(10.08 0 0 -10.08 174.107 213.203)"/><use xlink:href="#h" transform="matrix(10.08 0 0 -10.08 178.67 213.11)"/></g></g><g data-name="Span"><clipPath id="P"><path transform="matrix(1 0 0 -1 -25 1393)" d="M0 0h841.92v1417.32H0z" fill-rule="evenodd"/></clipPath><g clip-path="url(#P)"><use xlink:href="#M" transform="matrix(10.08 0 0 -10.08 121.117 225.23)"/><use xlink:href="#j" transform="matrix(10.08 0 0 -10.08 125.942 225.26)"/><use xlink:href="#N" transform="matrix(10.08 0 0 -10.08 133.996 225.323)"/><use xlink:href="#d" transform="matrix(10.08 0 0 -10.08 138.993 225.323)"/><use xlink:href="#u" transform="matrix(10.08 0 0 -10.08 144.027 225.323)"/><use xlink:href="#u" transform="matrix(10.08 0 0 -10.08 149.32 225.323)"/><use xlink:href="#l" transform="matrix(10.08 0 0 -10.08 154.793 225.26)"/><use xlink:href="#e" transform="matrix(10.08 0 0 -10.08 157.14 225.26)"/><use xlink:href="#i" transform="matrix(10.08 0 0 -10.08 161.94 227.026)"/><use xlink:href="#w" transform="matrix(10.08 0 0 -10.08 166.855 225.323)"/></g></g><g data-name="P"><path d="M52.46 336.94h87.84v-37.32H52.46z" fill="#ffc" fill-rule="evenodd"/><path stroke-width="1.5" stroke-miterlimit="10" fill="none" stroke="#b5b5b5" d="M52.46 336.94h87.84v-37.32H52.46z"/></g><g data-name="Span"><clipPath id="Q"><path transform="matrix(1 0 0 -1 -25 1393)" d="M0 0h841.92v1417.32H0z" fill-rule="evenodd"/></clipPath><g clip-path="url(#Q)"><use xlink:href="#M" transform="matrix(10.08 0 0 -10.08 77.657 315.59)"/><use xlink:href="#D" transform="matrix(10.08 0 0 -10.08 81.93 315.62)"/><use xlink:href="#f" transform="matrix(10.08 0 0 -10.08 86.216 315.674)"/><use xlink:href="#p" transform="matrix(10.08 0 0 -10.08 90.183 315.62)"/><use xlink:href="#k" transform="matrix(10.08 0 0 -10.08 93.35 315.683)"/><use xlink:href="#g" transform="matrix(10.08 0 0 -10.08 98.169 315.683)"/><use xlink:href="#f" transform="matrix(10.08 0 0 -10.08 102.152 315.674)"/><use xlink:href="#d" transform="matrix(10.08 0 0 -10.08 105.824 315.683)"/><use xlink:href="#u" transform="matrix(10.08 0 0 -10.08 110.88 315.683)"/><use xlink:href="#h" transform="matrix(10.08 0 0 -10.08 115.699 315.59)"/></g></g><g data-name="Span"><clipPath id="R"><path transform="matrix(1 0 0 -1 -25 1393)" d="M0 0h841.92v1417.32H0z" fill-rule="evenodd"/></clipPath><g clip-path="url(#R)"><symbol id="S"><path d="M.388.45A.223.223 0 0 0 .373.364.179.179 0 0 0 .328.3.197.197 0 0 0 .256.258a.307.307 0 0 0-.1-.015H.084V.016A.01.01 0 0 0 .082.009.014.014 0 0 0 .075.004.112.112 0 0 0 .042 0a.12.12 0 0 0-.033.004.014.014 0 0 0-.007.005A.012.012 0 0 0 0 .016v.583C0 .612.003.62.01.626a.036.036 0 0 0 .023.009h.135a.373.373 0 0 0 .084-.01.17.17 0 0 0 .052-.02.16.16 0 0 0 .074-.09.196.196 0 0 0 .01-.065M.3.443a.13.13 0 0 1-.015.064.098.098 0 0 1-.035.039.118.118 0 0 1-.044.016.292.292 0 0 1-.044.003H.084V.312H.16c.025 0 .046.003.063.01a.12.12 0 0 1 .042.027C.277.36.285.374.291.39A.155.155 0 0 1 .3.443z"/></symbol><use xlink:href="#c" transform="matrix(10.08 0 0 -10.08 66.837 327.803)"/><use xlink:href="#d" transform="matrix(10.08 0 0 -10.08 71.613 327.803)"/><use xlink:href="#e" transform="matrix(10.08 0 0 -10.08 76.928 327.74)"/><use xlink:href="#f" transform="matrix(10.08 0 0 -10.08 81.63 327.794)"/><use xlink:href="#d" transform="matrix(10.08 0 0 -10.08 85.301 327.803)"/><use xlink:href="#e" transform="matrix(10.08 0 0 -10.08 90.617 327.74)"/><use xlink:href="#g" transform="matrix(10.08 0 0 -10.08 95.598 327.803)"/><use xlink:href="#d" transform="matrix(10.08 0 0 -10.08 99.927 327.803)"/><use xlink:href="#h" transform="matrix(10.08 0 0 -10.08 104.49 327.71)"/><use xlink:href="#S" transform="matrix(10.08 0 0 -10.08 107.272 327.74)"/><use xlink:href="#k" transform="matrix(10.08 0 0 -10.08 112.039 327.803)"/><use xlink:href="#l" transform="matrix(10.08 0 0 -10.08 117.069 327.74)"/><use xlink:href="#p" transform="matrix(10.08 0 0 -10.08 119.415 327.74)"/><use xlink:href="#w" transform="matrix(10.08 0 0 -10.08 122.538 327.803)"/></g></g><g data-name="P"><path d="M6.5 154.6a4.98 4.98 0 0 1 4.98-4.98h174a4.98 4.98 0 0 1 4.98 4.98v19.92a4.98 4.98 0 0 1-4.98 4.98h-174a4.98 4.98 0 0 1-4.98-4.98z" fill="#f8cbad" fill-rule="evenodd"/><path stroke-width="1.5" stroke-miterlimit="10" fill="none" stroke="#b5b5b5" d="M6.5 154.6a4.98 4.98 0 0 1 4.98-4.98h174a4.98 4.98 0 0 1 4.98 4.98v19.92a4.98 4.98 0 0 1-4.98 4.98h-174a4.98 4.98 0 0 1-4.98-4.98z"/></g><g data-name="Span"><clipPath id="T"><path transform="matrix(1 0 0 -1 -25 1393)" d="M0 0h841.92v1417.32H0z" fill-rule="evenodd"/></clipPath><g clip-path="url(#T)"><use xlink:href="#q" transform="matrix(10.92 0 0 -10.92 23.101 161.54)"/><use xlink:href="#k" transform="matrix(10.92 0 0 -10.92 27.26 161.641)"/><use xlink:href="#e" transform="matrix(10.92 0 0 -10.92 32.817 161.572)"/><use xlink:href="#i" transform="matrix(10.92 0 0 -10.92 38.06 163.486)"/><use xlink:href="#o" transform="matrix(10.92 0 0 -10.92 43.71 161.641)"/><use xlink:href="#k" transform="matrix(10.92 0 0 -10.92 49.177 161.641)"/><use xlink:href="#i" transform="matrix(10.92 0 0 -10.92 54.244 163.486)"/><use xlink:href="#d" transform="matrix(10.92 0 0 -10.92 59.6 161.641)"/></g></g><g data-name="Span"><clipPath id="U"><path transform="matrix(1 0 0 -1 -25 1393)" d="M0 0h841.92v1417.32H0z" fill-rule="evenodd"/></clipPath><g clip-path="url(#U)"><symbol id="V"><path d="M.239.034A.056.056 0 0 0 .234.007.014.014 0 0 0 .222 0H.018a.014.014 0 0 0-.014.007A.057.057 0 0 0 0 .034c0 .012.001.02.004.026a.014.014 0 0 0 .014.007h.204c.002 0 .005 0 .007-.002A.01.01 0 0 0 .234.06.027.027 0 0 0 .237.05.07.07 0 0 0 .24.033z"/></symbol><use xlink:href="#V" transform="matrix(10.92 0 0 -10.92 64.912 159.215)"/></g></g><g data-name="Span"><clipPath id="W"><path transform="matrix(1 0 0 -1 -25 1393)" d="M0 0h841.92v1417.32H0z" fill-rule="evenodd"/></clipPath><g clip-path="url(#W)"><symbol id="X"><path d="M.54.033A.054.054 0 0 0 .544.015c0-.004 0-.007-.003-.01C.538.003.534.002.527.001a.228.228 0 0 0-.062.002.018.018 0 0 0-.007.005.05.05 0 0 0-.003.007L.4.17H.138L.086.017A.03.03 0 0 0 .082.01.022.022 0 0 0 .075.004.047.047 0 0 0 .062 0a.196.196 0 0 0-.046 0 .023.023 0 0 0-.013.005C.001.008 0 .01 0 .016l.004.017.212.587A.028.028 0 0 0 .221.63a.023.023 0 0 0 .01.005C.234.636.24.636.245.637A.253.253 0 0 0 .313.634a.02.02 0 0 0 .01-.006A.024.024 0 0 0 .328.62L.54.033M.268.55.158.236h.22L.268.55z"/></symbol><symbol id="Y"><path d="M.417.181a.187.187 0 0 0-.03-.1.184.184 0 0 0-.077-.06A.252.252 0 0 0 .197 0H.031A.036.036 0 0 0 .01.007C.003.013 0 .021 0 .034v.564C0 .61.003.619.01.624A.035.035 0 0 0 .03.632h.144a.333.333 0 0 0 .093-.01.162.162 0 0 0 .06-.032.128.128 0 0 0 .036-.05A.176.176 0 0 0 .355.39.135.135 0 0 0 .292.338.15.15 0 0 0 .407.24a.172.172 0 0 0 .01-.059M.29.464C.29.479.288.493.284.505a.075.075 0 0 1-.02.032.088.088 0 0 1-.036.02.201.201 0 0 1-.058.006H.083V.36h.096A.14.14 0 0 1 .23.367a.089.089 0 0 1 .052.057.129.129 0 0 1 .007.04M.328.176a.125.125 0 0 1-.01.05.091.091 0 0 1-.026.036.112.112 0 0 1-.043.022.23.23 0 0 1-.065.008H.083V.069h.122c.02 0 .036.003.05.007a.113.113 0 0 1 .038.02c.011.01.02.02.026.034a.11.11 0 0 1 .01.046z"/></symbol><use xlink:href="#X" transform="matrix(10.92 0 0 -10.92 68.09 161.572)"/><use xlink:href="#i" transform="matrix(10.92 0 0 -10.92 74.531 163.486)"/><use xlink:href="#e" transform="matrix(10.92 0 0 -10.92 80.208 161.572)"/><use xlink:href="#m" transform="matrix(10.92 0 0 -10.92 85.637 161.641)"/><use xlink:href="#w" transform="matrix(10.92 0 0 -10.92 91.344 161.641)"/><use xlink:href="#f" transform="matrix(10.92 0 0 -10.92 95.402 161.63)"/><use xlink:href="#l" transform="matrix(10.92 0 0 -10.92 99.539 161.572)"/><use xlink:href="#g" transform="matrix(10.92 0 0 -10.92 101.82 161.641)"/><use xlink:href="#h" transform="matrix(10.92 0 0 -10.92 105.906 161.54)"/><use xlink:href="#Y" transform="matrix(10.92 0 0 -10.92 109.334 161.54)"/><use xlink:href="#M" transform="matrix(10.92 0 0 -10.92 115.318 161.54)"/><use xlink:href="#F" transform="matrix(10.92 0 0 -10.92 120.604 161.572)"/><use xlink:href="#y" transform="matrix(10.92 0 0 -10.92 125.642 161.572)"/><use xlink:href="#h" transform="matrix(10.92 0 0 -10.92 130.847 161.54)"/><use xlink:href="#c" transform="matrix(10.92 0 0 -10.92 133.977 161.641)"/><use xlink:href="#d" transform="matrix(10.92 0 0 -10.92 139.107 161.641)"/><use xlink:href="#e" transform="matrix(10.92 0 0 -10.92 144.865 161.572)"/><use xlink:href="#f" transform="matrix(10.92 0 0 -10.92 149.958 161.63)"/><use xlink:href="#d" transform="matrix(10.92 0 0 -10.92 153.893 161.641)"/><use xlink:href="#e" transform="matrix(10.92 0 0 -10.92 159.618 161.572)"/><use xlink:href="#g" transform="matrix(10.92 0 0 -10.92 165.015 161.641)"/><use xlink:href="#d" transform="matrix(10.92 0 0 -10.92 169.65 161.641)"/><use xlink:href="#h" transform="matrix(10.92 0 0 -10.92 174.527 161.54)"/></g></g><g data-name="Span"><clipPath id="Z"><path transform="matrix(1 0 0 -1 -25 1393)" d="M0 0h841.92v1417.32H0z" fill-rule="evenodd"/></clipPath><g clip-path="url(#Z)"><use xlink:href="#M" transform="matrix(10.92 0 0 -10.92 72.061 174.74)"/><use xlink:href="#j" transform="matrix(10.92 0 0 -10.92 77.245 174.772)"/><use xlink:href="#N" transform="matrix(10.92 0 0 -10.92 85.992 174.841)"/><use xlink:href="#d" transform="matrix(10.92 0 0 -10.92 91.405 174.841)"/><use xlink:href="#u" transform="matrix(10.92 0 0 -10.92 96.86 174.841)"/><use xlink:href="#u" transform="matrix(10.92 0 0 -10.92 102.592 174.841)"/><use xlink:href="#l" transform="matrix(10.92 0 0 -10.92 108.555 174.772)"/><use xlink:href="#e" transform="matrix(10.92 0 0 -10.92 111.174 174.772)"/><use xlink:href="#i" transform="matrix(10.92 0 0 -10.92 116.395 176.686)"/><use xlink:href="#w" transform="matrix(10.92 0 0 -10.92 121.688 174.841)"/></g></g><g data-name="P"><path d="M6.26 257.08a4.98 4.98 0 0 1 4.98-4.98h174a4.98 4.98 0 0 1 4.98 4.98V277a4.98 4.98 0 0 1-4.98 4.98h-174A4.98 4.98 0 0 1 6.26 277z" fill="#f8cbad" fill-rule="evenodd"/><path stroke-width="1.5" stroke-miterlimit="10" fill="none" stroke="#b5b5b5" d="M6.26 257.08a4.98 4.98 0 0 1 4.98-4.98h174a4.98 4.98 0 0 1 4.98 4.98V277a4.98 4.98 0 0 1-4.98 4.98h-174A4.98 4.98 0 0 1 6.26 277z"/></g><g data-name="Span"><clipPath id="aa"><path transform="matrix(1 0 0 -1 -25 1393)" d="M0 0h841.92v1417.32H0z" fill-rule="evenodd"/></clipPath><g clip-path="url(#aa)"><symbol id="ab"><path d="M.412.017c0-.003 0-.005-.002-.008C.41.007.407.006.404.004A.128.128 0 0 0 .369 0L.341.001a.036.036 0 0 0-.016.006.038.038 0 0 0-.009.009L.084.332V.016c0-.003 0-.005-.002-.007A.014.014 0 0 0 .075.004.112.112 0 0 0 .042 0a.117.117 0 0 0-.033.004.014.014 0 0 0-.007.005A.014.014 0 0 0 0 .016v.606C0 .625 0 .627.002.63a.012.012 0 0 0 .007.004.117.117 0 0 0 .053.003c.006 0 .01-.001.013-.003A.012.012 0 0 0 .082.63.012.012 0 0 0 .084.622v-.28l.224.28a.027.027 0 0 0 .016.012.072.072 0 0 0 .013.003.185.185 0 0 0 .042 0C.384.635.389.634.39.632.394.632.396.63.397.628A.011.011 0 0 0 .4.622.027.027 0 0 0 .396.61.1.1 0 0 0 .384.592l-.21-.25.226-.3A.087.087 0 0 0 .41.024.019.019 0 0 0 .412.017z"/></symbol><use xlink:href="#ab" transform="matrix(10.92 0 0 -10.92 49.957 264.072)"/></g></g><g data-name="Span"><clipPath id="ac"><path transform="matrix(1 0 0 -1 -25 1393)" d="M0 0h841.92v1417.32H0z" fill-rule="evenodd"/></clipPath><g clip-path="url(#ac)"><use xlink:href="#V" transform="matrix(10.92 0 0 -10.92 55.048 261.715)"/></g></g><g data-name="Span"><clipPath id="ad"><path transform="matrix(1 0 0 -1 -25 1393)" d="M0 0h841.92v1417.32H0z" fill-rule="evenodd"/></clipPath><g clip-path="url(#ad)"><symbol id="ae"><path d="M.478.038A.037.037 0 0 0 .466.01.03.03 0 0 0 .455.003.043.043 0 0 0 .442.001H.415a.058.058 0 0 0-.04.012.118.118 0 0 0-.018.02.362.362 0 0 0-.018.031l-.2.36a2.954 2.954 0 0 0-.06.118H.078A4.974 4.974 0 0 0 .08.397V.016L.078.009A.014.014 0 0 0 .07.004.1.1 0 0 0 .04 0a.109.109 0 0 0-.032.004.014.014 0 0 0-.006.005A.014.014 0 0 0 0 .016v.583C0 .612.004.62.01.626a.038.038 0 0 0 .024.009h.04c.01 0 .017-.001.024-.003A.057.057 0 0 0 .13.608.212.212 0 0 0 .144.583L.298.306a4.18 4.18 0 0 0 .1-.189H.4l-.001.08v.424c0 .002 0 .004.002.006a.014.014 0 0 0 .006.005.039.039 0 0 0 .012.003.167.167 0 0 0 .039 0c.005 0 .01-.002.012-.003A.014.014 0 0 0 .476.627.011.011 0 0 0 .478.621V.038z"/></symbol><symbol id="af"><path d="M.378.015c0-.002 0-.005-.002-.007A.017.017 0 0 0 .37.004.045.045 0 0 0 .358 0a.162.162 0 0 0-.052.003A.017.017 0 0 0 .3.008a.012.012 0 0 0-.002.007v.257a.253.253 0 0 1-.006.061.125.125 0 0 1-.017.04.074.074 0 0 1-.03.025.09.09 0 0 1-.04.009.104.104 0 0 1-.061-.022.328.328 0 0 1-.063-.063V.015L.079.008A.017.017 0 0 0 .072.004.045.045 0 0 0 .06 0a.167.167 0 0 0-.052.003A.017.017 0 0 0 0 .008.015.015 0 0 0 0 .015v.652l.001.007A.014.014 0 0 0 .008.68.052.052 0 0 0 .02.682.162.162 0 0 0 .072.68.014.014 0 0 0 .08.674.012.012 0 0 0 .08.667V.404a.256.256 0 0 0 .07.054.162.162 0 0 0 .145.003.13.13 0 0 0 .048-.04A.156.156 0 0 0 .37.364a.337.337 0 0 0 .008-.08V.015z"/></symbol><use xlink:href="#ae" transform="matrix(10.92 0 0 -10.92 58.957 264.072)"/><use xlink:href="#d" transform="matrix(10.92 0 0 -10.92 65.59 264.141)"/><use xlink:href="#k" transform="matrix(10.92 0 0 -10.92 71.023 264.141)"/><use xlink:href="#p" transform="matrix(10.92 0 0 -10.92 76.6 264.072)"/><use xlink:href="#d" transform="matrix(10.92 0 0 -10.92 80.092 264.141)"/><use xlink:href="#w" transform="matrix(10.92 0 0 -10.92 85.466 264.141)"/><use xlink:href="#f" transform="matrix(10.92 0 0 -10.92 89.513 264.13)"/><use xlink:href="#h" transform="matrix(10.92 0 0 -10.92 92.94 264.04)"/><use xlink:href="#ae" transform="matrix(10.92 0 0 -10.92 96.73 264.072)"/><use xlink:href="#d" transform="matrix(10.92 0 0 -10.92 103.362 264.141)"/><use xlink:href="#l" transform="matrix(10.92 0 0 -10.92 109.014 264.072)"/><use xlink:href="#i" transform="matrix(10.92 0 0 -10.92 111.099 265.986)"/><use xlink:href="#af" transform="matrix(10.92 0 0 -10.92 116.776 264.072)"/><use xlink:href="#N" transform="matrix(10.92 0 0 -10.92 122.541 264.141)"/><use xlink:href="#m" transform="matrix(10.92 0 0 -10.92 127.938 264.141)"/><use xlink:href="#o" transform="matrix(10.92 0 0 -10.92 134.002 264.141)"/><use xlink:href="#p" transform="matrix(10.92 0 0 -10.92 139.806 264.072)"/><use xlink:href="#w" transform="matrix(10.92 0 0 -10.92 143.233 264.141)"/></g></g><g data-name="Span"><clipPath id="ag"><path transform="matrix(1 0 0 -1 -25 1393)" d="M0 0h841.92v1417.32H0z" fill-rule="evenodd"/></clipPath><g clip-path="url(#ag)"><use xlink:href="#c" transform="matrix(10.92 0 0 -10.92 51.819 277.341)"/><use xlink:href="#d" transform="matrix(10.92 0 0 -10.92 56.948 277.341)"/><use xlink:href="#e" transform="matrix(10.92 0 0 -10.92 62.706 277.272)"/><use xlink:href="#f" transform="matrix(10.92 0 0 -10.92 67.8 277.33)"/><use xlink:href="#d" transform="matrix(10.92 0 0 -10.92 71.734 277.341)"/><use xlink:href="#e" transform="matrix(10.92 0 0 -10.92 77.46 277.272)"/><use xlink:href="#g" transform="matrix(10.92 0 0 -10.92 82.856 277.341)"/><use xlink:href="#d" transform="matrix(10.92 0 0 -10.92 87.491 277.341)"/><use xlink:href="#h" transform="matrix(10.92 0 0 -10.92 92.368 277.24)"/><use xlink:href="#S" transform="matrix(10.92 0 0 -10.92 96.157 277.272)"/><use xlink:href="#k" transform="matrix(10.92 0 0 -10.92 101.376 277.341)"/><use xlink:href="#l" transform="matrix(10.92 0 0 -10.92 106.858 277.272)"/><use xlink:href="#p" transform="matrix(10.92 0 0 -10.92 109.477 277.272)"/><use xlink:href="#h" transform="matrix(10.92 0 0 -10.92 112.494 277.24)"/><use xlink:href="#c" transform="matrix(10.92 0 0 -10.92 115.275 277.341)"/><use xlink:href="#d" transform="matrix(10.92 0 0 -10.92 120.404 277.341)"/><use xlink:href="#k" transform="matrix(10.92 0 0 -10.92 125.837 277.341)"/><use xlink:href="#p" transform="matrix(10.92 0 0 -10.92 131.426 277.272)"/><use xlink:href="#g" transform="matrix(10.92 0 0 -10.92 134.901 277.341)"/><use xlink:href="#af" transform="matrix(10.92 0 0 -10.92 139.856 277.272)"/></g></g><g data-name="P"><path d="M6.26 357.36a2.9 2.9 0 0 1 2.9-2.9h178.16c1.6 0 2.9 1.3 2.9 2.9v11.6c0 1.6-1.3 2.9-2.9 2.9H9.16a2.9 2.9 0 0 1-2.9-2.9z" fill="#f8cbad" fill-rule="evenodd"/><path stroke-width="1.5" stroke-miterlimit="10" fill="none" stroke="#b5b5b5" d="M6.26 357.36a2.9 2.9 0 0 1 2.9-2.9h178.16c1.6 0 2.9 1.3 2.9 2.9v11.6c0 1.6-1.3 2.9-2.9 2.9H9.16a2.9 2.9 0 0 1-2.9-2.9z"/></g><g data-name="Span"><clipPath id="ah"><path transform="matrix(1 0 0 -1 -25 1393)" d="M0 0h841.92v1417.32H0z" fill-rule="evenodd"/></clipPath><g clip-path="url(#ah)"><symbol id="ai"><path d="M.687.016c0-.003 0-.005-.002-.007A.014.014 0 0 0 .678.004.08.08 0 0 0 .666 0a.114.114 0 0 0-.052.002.014.014 0 0 0-.007.006.012.012 0 0 0-.002.007v.55L.378.013A.015.015 0 0 0 .375.007.021.021 0 0 0 .367.003.12.12 0 0 0 .321 0a.08.08 0 0 0-.012.002A.029.029 0 0 0 .3.008a.014.014 0 0 0-.004.005L.082.566v-.55L.08.009A.014.014 0 0 0 .073.004.112.112 0 0 0 .04 0a.109.109 0 0 0-.032.004A.014.014 0 0 0 0 .009.015.015 0 0 0 0 .016v.58C0 .61.004.62.01.627a.037.037 0 0 0 .025.009h.05c.01 0 .02-.001.028-.003A.054.054 0 0 0 .148.607a.116.116 0 0 0 .01-.024L.341.126h.003l.19.456.012.025A.062.062 0 0 0 .56.623C.565.627.57.63.577.632a.071.071 0 0 0 .021.003h.053c.005 0 .01-.001.014-.003A.023.023 0 0 0 .676.625.03.03 0 0 0 .684.614.044.044 0 0 0 .687.597V.016z"/></symbol><symbol id="aj"><path d="M.258.178.2.016C.198.011.193.007.185.004A.11.11 0 0 0 .148 0l-.02.001a.028.028 0 0 0-.012.004.01.01 0 0 0-.005.008c0 .003 0 .007.003.012l.06.153a.025.025 0 0 0-.008.006.025.025 0 0 0-.005.01l-.157.42A.049.049 0 0 0 0 .628c0 .004.001.007.004.01a.023.023 0 0 0 .013.004.208.208 0 0 0 .06-.002.012.012 0 0 0 .006-.006.045.045 0 0 0 .005-.01L.213.273h.002l.12.354C.339.634.34.637.344.64a.03.03 0 0 0 .012.004.147.147 0 0 0 .047 0C.408.643.412.641.415.64a.011.011 0 0 0 .004-.01.048.048 0 0 0-.003-.014L.258.178z"/></symbol><use xlink:href="#ai" transform="matrix(10.92 0 0 -10.92 35.941 366.792)"/><use xlink:href="#l" transform="matrix(10.92 0 0 -10.92 45.07 366.792)"/><use xlink:href="#e" transform="matrix(10.92 0 0 -10.92 47.688 366.792)"/><use xlink:href="#l" transform="matrix(10.92 0 0 -10.92 53.358 366.792)"/><use xlink:href="#j" transform="matrix(10.92 0 0 -10.92 55.976 366.792)"/><use xlink:href="#o" transform="matrix(10.92 0 0 -10.92 64.707 366.861)"/><use xlink:href="#j" transform="matrix(10.92 0 0 -10.92 70.467 366.792)"/><use xlink:href="#h" transform="matrix(10.92 0 0 -10.92 78.431 366.76)"/><use xlink:href="#c" transform="matrix(10.92 0 0 -10.92 81.212 366.861)"/><use xlink:href="#l" transform="matrix(10.92 0 0 -10.92 86.555 366.792)"/><use xlink:href="#j" transform="matrix(10.92 0 0 -10.92 89.195 366.792)"/><use xlink:href="#l" transform="matrix(10.92 0 0 -10.92 97.835 366.792)"/><use xlink:href="#t" transform="matrix(10.92 0 0 -10.92 100.453 366.792)"/><use xlink:href="#k" transform="matrix(10.92 0 0 -10.92 102.64 366.861)"/><use xlink:href="#p" transform="matrix(10.92 0 0 -10.92 108.25 366.792)"/><use xlink:href="#l" transform="matrix(10.92 0 0 -10.92 111.955 366.792)"/><use xlink:href="#f" transform="matrix(10.92 0 0 -10.92 113.955 366.85)"/><use xlink:href="#aj" transform="matrix(10.92 0 0 -10.92 117.564 368.7)"/><use xlink:href="#h" transform="matrix(10.92 0 0 -10.92 122.33 366.76)"/><use xlink:href="#H" transform="matrix(10.92 0 0 -10.92 125.714 366.792)"/><use xlink:href="#l" transform="matrix(10.92 0 0 -10.92 130.562 366.792)"/><use xlink:href="#t" transform="matrix(10.92 0 0 -10.92 133.18 366.792)"/><use xlink:href="#f" transform="matrix(10.92 0 0 -10.92 135.052 366.85)"/><use xlink:href="#d" transform="matrix(10.92 0 0 -10.92 138.987 366.861)"/><use xlink:href="#p" transform="matrix(10.92 0 0 -10.92 144.712 366.792)"/><use xlink:href="#l" transform="matrix(10.92 0 0 -10.92 148.417 366.792)"/><use xlink:href="#e" transform="matrix(10.92 0 0 -10.92 151.057 366.792)"/><use xlink:href="#i" transform="matrix(10.92 0 0 -10.92 156.256 368.706)"/></g></g><g data-name="P"><path d="M6.26 392.28a2.9 2.9 0 0 1 2.9-2.9h178.16c1.6 0 2.9 1.3 2.9 2.9v11.6c0 1.6-1.3 2.9-2.9 2.9H9.16a2.9 2.9 0 0 1-2.9-2.9z" fill="#f8cbad" fill-rule="evenodd"/><path stroke-width="1.5" stroke-miterlimit="10" fill="none" stroke="#b5b5b5" d="M6.26 392.28a2.9 2.9 0 0 1 2.9-2.9h178.16c1.6 0 2.9 1.3 2.9 2.9v11.6c0 1.6-1.3 2.9-2.9 2.9H9.16a2.9 2.9 0 0 1-2.9-2.9z"/></g><g data-name="Span"><clipPath id="ak"><path transform="matrix(1 0 0 -1 -25 1393)" d="M0 0h841.92v1417.32H0z" fill-rule="evenodd"/></clipPath><g clip-path="url(#ak)"><use xlink:href="#c" transform="matrix(10.92 0 0 -10.92 42.003 401.801)"/><use xlink:href="#d" transform="matrix(10.92 0 0 -10.92 47.132 401.801)"/><use xlink:href="#e" transform="matrix(10.92 0 0 -10.92 52.89 401.732)"/><use xlink:href="#f" transform="matrix(10.92 0 0 -10.92 57.983 401.79)"/><use xlink:href="#d" transform="matrix(10.92 0 0 -10.92 61.918 401.801)"/><use xlink:href="#e" transform="matrix(10.92 0 0 -10.92 67.643 401.732)"/><use xlink:href="#g" transform="matrix(10.92 0 0 -10.92 73.04 401.801)"/><use xlink:href="#d" transform="matrix(10.92 0 0 -10.92 77.675 401.801)"/><use xlink:href="#h" transform="matrix(10.92 0 0 -10.92 82.552 401.7)"/><use xlink:href="#q" transform="matrix(10.92 0 0 -10.92 86.341 401.7)"/><use xlink:href="#d" transform="matrix(10.92 0 0 -10.92 90.506 401.801)"/><use xlink:href="#e" transform="matrix(10.92 0 0 -10.92 96.199 401.732)"/><use xlink:href="#i" transform="matrix(10.92 0 0 -10.92 101.399 403.646)"/><use xlink:href="#f" transform="matrix(10.92 0 0 -10.92 106.468 401.79)"/><use xlink:href="#af" transform="matrix(10.92 0 0 -10.92 110.712 401.732)"/><use xlink:href="#h" transform="matrix(10.92 0 0 -10.92 115.629 401.7)"/><use xlink:href="#H" transform="matrix(10.92 0 0 -10.92 119.2 401.732)"/><use xlink:href="#l" transform="matrix(10.92 0 0 -10.92 124.004 401.732)"/><use xlink:href="#t" transform="matrix(10.92 0 0 -10.92 126.644 401.732)"/><use xlink:href="#f" transform="matrix(10.92 0 0 -10.92 128.516 401.79)"/><use xlink:href="#d" transform="matrix(10.92 0 0 -10.92 132.44 401.801)"/><use xlink:href="#p" transform="matrix(10.92 0 0 -10.92 138.165 401.732)"/><use xlink:href="#l" transform="matrix(10.92 0 0 -10.92 141.869 401.732)"/><use xlink:href="#e" transform="matrix(10.92 0 0 -10.92 144.51 401.732)"/><use xlink:href="#i" transform="matrix(10.92 0 0 -10.92 149.709 403.646)"/></g></g><g data-name="P"><path d="M6.5 480.72a2.9 2.9 0 0 1 2.9-2.9h178.16c1.6 0 2.9 1.3 2.9 2.9v11.6c0 1.6-1.3 2.9-2.9 2.9H9.4a2.9 2.9 0 0 1-2.9-2.9z" fill="#f8cbad" fill-rule="evenodd"/><path stroke-width="1.5" stroke-miterlimit="10" fill="none" stroke="#b5b5b5" d="M6.5 480.72a2.9 2.9 0 0 1 2.9-2.9h178.16c1.6 0 2.9 1.3 2.9 2.9v11.6c0 1.6-1.3 2.9-2.9 2.9H9.4a2.9 2.9 0 0 1-2.9-2.9z"/></g><g data-name="Span"><clipPath id="al"><path transform="matrix(1 0 0 -1 -25 1393)" d="M0 0h841.92v1417.32H0z" fill-rule="evenodd"/></clipPath><g clip-path="url(#al)"><use xlink:href="#ai" transform="matrix(10.92 0 0 -10.92 65.63 490.152)"/><use xlink:href="#m" transform="matrix(10.92 0 0 -10.92 74.528 490.221)"/><use xlink:href="#u" transform="matrix(10.92 0 0 -10.92 80.315 490.221)"/><use xlink:href="#d" transform="matrix(10.92 0 0 -10.92 86.076 490.221)"/><use xlink:href="#t" transform="matrix(10.92 0 0 -10.92 91.801 490.152)"/><use xlink:href="#h" transform="matrix(10.92 0 0 -10.92 93.497 490.12)"/><use xlink:href="#y" transform="matrix(10.92 0 0 -10.92 96.1 490.152)"/><use xlink:href="#p" transform="matrix(10.92 0 0 -10.92 102.12 490.152)"/><use xlink:href="#k" transform="matrix(10.92 0 0 -10.92 105.607 490.221)"/><use xlink:href="#l" transform="matrix(10.92 0 0 -10.92 111.121 490.152)"/><use xlink:href="#e" transform="matrix(10.92 0 0 -10.92 113.74 490.152)"/><use xlink:href="#l" transform="matrix(10.92 0 0 -10.92 119.388 490.152)"/><use xlink:href="#e" transform="matrix(10.92 0 0 -10.92 122.006 490.152)"/><use xlink:href="#i" transform="matrix(10.92 0 0 -10.92 127.228 492.066)"/></g></g><g data-name="P"><path d="M6.74 603.24a2.9 2.9 0 0 1 2.9-2.9H187.8c1.6 0 2.9 1.3 2.9 2.9v11.6c0 1.6-1.3 2.9-2.9 2.9H9.64a2.9 2.9 0 0 1-2.9-2.9z" fill="#f8cbad" fill-rule="evenodd"/><path stroke-width="1.5" stroke-miterlimit="10" fill="none" stroke="#b5b5b5" d="M6.74 603.24a2.9 2.9 0 0 1 2.9-2.9H187.8c1.6 0 2.9 1.3 2.9 2.9v11.6c0 1.6-1.3 2.9-2.9 2.9H9.64a2.9 2.9 0 0 1-2.9-2.9z"/></g><g data-name="Span"><clipPath id="am"><path transform="matrix(1 0 0 -1 -25 1393)" d="M0 0h841.92v1417.32H0z" fill-rule="evenodd"/></clipPath><g clip-path="url(#am)"><symbol id="an"><path d="M.418.456V.447L.415.44.415.435.265.018a.024.024 0 0 0-.006-.01A.02.02 0 0 0 .25.004a.253.253 0 0 0-.081 0 .023.023 0 0 0-.01.006.024.024 0 0 0-.005.009l-.15.417c0 .004-.002.007-.003.01A.28.28 0 0 1 0 .452v.004C0 .458 0 .46.002.462a.012.012 0 0 0 .006.005.313.313 0 0 0 .067 0A.014.014 0 0 0 .082.46.031.031 0 0 0 .086.454L.21.092.212.086l.002.006.122.362.004.007a.018.018 0 0 0 .007.005.19.19 0 0 0 .064 0C.414.467.416.465.417.463A.01.01 0 0 0 .418.456z"/></symbol><use xlink:href="#ai" transform="matrix(10.92 0 0 -10.92 60.613 612.722)"/><use xlink:href="#m" transform="matrix(10.92 0 0 -10.92 69.512 612.791)"/><use xlink:href="#u" transform="matrix(10.92 0 0 -10.92 75.3 612.791)"/><use xlink:href="#d" transform="matrix(10.92 0 0 -10.92 81.06 612.791)"/><use xlink:href="#t" transform="matrix(10.92 0 0 -10.92 86.785 612.722)"/><use xlink:href="#h" transform="matrix(10.92 0 0 -10.92 88.481 612.69)"/><use xlink:href="#M" transform="matrix(10.92 0 0 -10.92 91.92 612.69)"/><use xlink:href="#an" transform="matrix(10.92 0 0 -10.92 96.47 612.722)"/><use xlink:href="#k" transform="matrix(10.92 0 0 -10.92 101.715 612.791)"/><use xlink:href="#t" transform="matrix(10.92 0 0 -10.92 107.293 612.722)"/><use xlink:href="#o" transform="matrix(10.92 0 0 -10.92 109.778 612.791)"/><use xlink:href="#k" transform="matrix(10.92 0 0 -10.92 115.234 612.791)"/><use xlink:href="#f" transform="matrix(10.92 0 0 -10.92 120.194 612.78)"/><use xlink:href="#l" transform="matrix(10.92 0 0 -10.92 124.33 612.722)"/><use xlink:href="#m" transform="matrix(10.92 0 0 -10.92 126.613 612.791)"/><use xlink:href="#e" transform="matrix(10.92 0 0 -10.92 132.704 612.722)"/></g></g><g data-name="P"><path d="M230.18 154.6a4.98 4.98 0 0 1 4.98-4.98h75.6a4.98 4.98 0 0 1 4.98 4.98v19.92a4.98 4.98 0 0 1-4.98 4.98h-75.6a4.98 4.98 0 0 1-4.98-4.98z" fill="#cdeb8b" fill-rule="evenodd"/><path stroke-width="1.5" stroke-miterlimit="10" fill="none" stroke="#b5b5b5" d="M230.18 154.6a4.98 4.98 0 0 1 4.98-4.98h75.6a4.98 4.98 0 0 1 4.98 4.98v19.92a4.98 4.98 0 0 1-4.98 4.98h-75.6a4.98 4.98 0 0 1-4.98-4.98z"/></g><g data-name="Span"><clipPath id="ao"><path transform="matrix(1 0 0 -1 -25 1393)" d="M0 0h841.92v1417.32H0z" fill-rule="evenodd"/></clipPath><g clip-path="url(#ao)"><symbol id="ap"><path d="M.413.2A.184.184 0 0 0 .344.05.222.222 0 0 0 .27.013.316.316 0 0 0 .118.005a.373.373 0 0 0-.086.03.106.106 0 0 0-.02.014.038.038 0 0 0-.01.018.275.275 0 0 0 .001.077.019.019 0 0 0 .007.008.014.014 0 0 0 .009.003c.004 0 .01-.002.019-.008A.429.429 0 0 1 .116.111.23.23 0 0 1 .221.11c.013.004.023.01.031.016a.066.066 0 0 1 .02.025.08.08 0 0 1 .007.034.058.058 0 0 1-.011.037.11.11 0 0 1-.031.027.273.273 0 0 1-.043.023 5.214 5.214 0 0 0-.049.022.478.478 0 0 0-.05.026.174.174 0 0 0-.073.085.177.177 0 0 0-.011.068.164.164 0 0 0 .062.137C.092.624.114.636.14.643A.297.297 0 0 0 .364.616.03.03 0 0 0 .374.6.37.37 0 0 0 .373.524a.017.017 0 0 0-.005-.01C.366.512.363.511.359.511a.04.04 0 0 0-.017.007.332.332 0 0 1-.068.03.169.169 0 0 1-.05.006A.113.113 0 0 1 .189.55.073.073 0 0 1 .162.535.057.057 0 0 1 .146.513.074.074 0 0 1 .141.486C.141.472.145.46.152.45A.12.12 0 0 1 .183.422.394.394 0 0 1 .227.4a1.566 1.566 0 0 0 .1-.049A.191.191 0 0 0 .37.315.162.162 0 0 0 .413.201z"/></symbol><symbol id="aq"><path d="M.428.258C.428.243.424.232.418.225A.035.035 0 0 0 .39.215H.125A.19.19 0 0 1 .131.163.103.103 0 0 1 .152.125.095.095 0 0 1 .19.101.161.161 0 0 1 .244.093a.323.323 0 0 1 .129.025.053.053 0 0 0 .019.005L.399.12C.4.12.403.118.404.115A.167.167 0 0 0 .407.064L.405.05A.035.035 0 0 0 .402.04.033.033 0 0 0 .397.036.055.055 0 0 0 .38.025a.297.297 0 0 0-.087-.02.395.395 0 0 0-.162.01.181.181 0 0 0-.073.044.187.187 0 0 0-.044.075A.359.359 0 0 0 0 .241c0 .038.005.073.015.104.01.031.025.058.044.08.02.021.043.038.07.05A.243.243 0 0 0 .222.49.242.242 0 0 0 .315.475.167.167 0 0 0 .416.363.295.295 0 0 0 .428.278v-.02m-.12.035a.124.124 0 0 1-.02.082C.273.395.25.405.219.405a.09.09 0 0 1-.04-.01.085.085 0 0 1-.03-.023.111.111 0 0 1-.017-.036.18.18 0 0 1-.007-.043h.184z"/></symbol><symbol id="ar"><path d="M.416.02A.014.014 0 0 0 .413.01a.023.023 0 0 0-.01-.005.243.243 0 0 0-.097 0 .023.023 0 0 0-.01.006.014.014 0 0 0-.003.009v.248a.2.2 0 0 1-.004.05.092.092 0 0 1-.014.03.057.057 0 0 1-.023.02.067.067 0 0 1-.032.008.081.081 0 0 1-.047-.017.256.256 0 0 1-.05-.05V.02A.014.014 0 0 0 .12.012.023.023 0 0 0 .11.005a.248.248 0 0 0-.097 0 .023.023 0 0 0-.01.006A.014.014 0 0 0 0 .02v.435c0 .003 0 .006.002.008a.017.017 0 0 0 .01.007l.015.003a.184.184 0 0 0 .052 0A.051.051 0 0 0 .094.47.017.017 0 0 0 .103.463.014.014 0 0 0 .105.455v-.05a.278.278 0 0 0 .073.058c.025.013.051.02.078.02A.17.17 0 0 0 .331.468a.128.128 0 0 0 .05-.04A.157.157 0 0 0 .407.37.343.343 0 0 0 .416.289v-.27z"/></symbol><symbol id="as"><path d="M.308.07A.145.145 0 0 0 .305.035.036.036 0 0 0 .298.02.044.044 0 0 0 .285.012.171.171 0 0 0 .24.002a.243.243 0 0 0-.09.007.107.107 0 0 0-.045.029.121.121 0 0 0-.025.048.256.256 0 0 0-.009.07v.223H.02C.013.379.009.383.005.39A.11.11 0 0 0 0 .43l.001.024a.06.06 0 0 0 .004.015.019.019 0 0 0 .006.008A.016.016 0 0 0 .02.48H.07v.097c0 .003.001.006.003.008a.02.02 0 0 0 .01.007.256.256 0 0 0 .098 0A.02.02 0 0 0 .19.584.014.014 0 0 0 .194.576V.479h.095C.292.479.295.478.297.476A.017.017 0 0 0 .303.468a.165.165 0 0 0 0-.078C.3.383.295.38.29.38H.194V.174c0-.023.004-.041.011-.053.008-.012.02-.018.04-.018a.096.096 0 0 1 .031.005 1.366 1.366 0 0 0 .018.006C.296.114.298.114.3.112.302.112.303.11.304.105A.141.141 0 0 0 .308.07z"/></symbol><symbol id="at"><path d="M.356.097A.2.2 0 0 0 .35.05.035.035 0 0 0 .343.042a.126.126 0 0 0-.02-.014A.213.213 0 0 0 .25.004a.24.24 0 0 0-.133.012.169.169 0 0 0-.065.046.208.208 0 0 0-.04.074.35.35 0 0 0-.013.1C0 .28.005.319.016.35a.219.219 0 0 0 .046.079c.02.02.043.036.07.046a.247.247 0 0 0 .16.003A.176.176 0 0 0 .34.452a.039.039 0 0 0 .008-.01A.022.022 0 0 0 .35.433.18.18 0 0 0 .35.358C.346.35.342.347.336.347A.03.03 0 0 0 .32.354a.484.484 0 0 1-.022.015.164.164 0 0 1-.03.015.116.116 0 0 1-.042.007A.083.083 0 0 1 .15.354.19.19 0 0 1 .126.246C.126.222.128.2.132.184A.135.135 0 0 1 .151.139.084.084 0 0 1 .182.11.104.104 0 0 1 .226.103C.243.103.257.105.27.11c.012.005.023.01.032.017l.023.017C.33.149.336.15.34.15c.003 0 .006 0 .008-.002S.35.144.352.139A.288.288 0 0 0 .356.097z"/></symbol><symbol id="au"><path d="M0 0z"/></symbol><use xlink:href="#ap" transform="matrix(10.92 0 0 -10.92 252.296 161.663)"/><use xlink:href="#aq" transform="matrix(10.92 0 0 -10.92 257.52 161.663)"/><use xlink:href="#ar" transform="matrix(10.92 0 0 -10.92 263.29 161.572)"/><use xlink:href="#as" transform="matrix(10.92 0 0 -10.92 268.626 161.647)"/><use xlink:href="#aq" transform="matrix(10.92 0 0 -10.92 272.731 161.663)"/><use xlink:href="#ar" transform="matrix(10.92 0 0 -10.92 278.501 161.572)"/><use xlink:href="#at" transform="matrix(10.92 0 0 -10.92 284.11 161.657)"/><use xlink:href="#aq" transform="matrix(10.92 0 0 -10.92 288.685 161.663)"/><use xlink:href="#au" transform="matrix(10.92 0 0 -10.92 293.784 161.54)"/></g></g><g data-name="Span"><clipPath id="av"><path transform="matrix(1 0 0 -1 -25 1393)" d="M0 0h841.92v1417.32H0z" fill-rule="evenodd"/></clipPath><g clip-path="url(#av)"><symbol id="aw"><path d="M.483.582A.175.175 0 0 0 .48.542a.02.02 0 0 0-.007-.01A.012.012 0 0 0 .464.53H.306V.02A.013.013 0 0 0 .303.013a.02.02 0 0 0-.01-.007.266.266 0 0 0-.102 0 .024.024 0 0 0-.01.007.014.014 0 0 0-.004.009V.53H.02a.012.012 0 0 0-.008.003.023.023 0 0 0-.006.009A.078.078 0 0 0 0 .558a.262.262 0 0 0 0 .049.068.068 0 0 0 .004.016.019.019 0 0 0 .006.009.012.012 0 0 0 .008.003h.445A.012.012 0 0 0 .472.632.017.017 0 0 0 .48.623.18.18 0 0 0 .484.582z"/></symbol><symbol id="ax"><path d="M.28.415A.345.345 0 0 0 .276.368C.275.364.273.361.27.36A.012.012 0 0 0 .263.357a.03.03 0 0 0-.01.001.146.146 0 0 1-.04.01.052.052 0 0 1-.02-.005A.084.084 0 0 1 .17.351.176.176 0 0 1 .148.327.416.416 0 0 1 .123.291V.02A.014.014 0 0 0 .12.01.023.023 0 0 0 .11.006a.248.248 0 0 0-.097 0 .023.023 0 0 0-.01.006A.014.014 0 0 0 0 .02v.435c0 .003 0 .006.002.008a.017.017 0 0 0 .01.007l.015.003a.184.184 0 0 0 .052 0A.051.051 0 0 0 .094.47.017.017 0 0 0 .103.463.014.014 0 0 0 .105.455V.401a.33.33 0 0 0 .061.065c.01.006.018.01.027.013a.1.1 0 0 0 .041.003L.25.479A.068.068 0 0 0 .27.471.012.012 0 0 0 .275.466.032.032 0 0 0 .278.458L.279.442V.415z"/></symbol><symbol id="ay"><path d="M.398.026a.013.013 0 0 0-.005-.01A.032.032 0 0 0 .377.01a.178.178 0 0 0-.03-.002.19.19 0 0 0-.033.002A.027.027 0 0 0 .3.016a.015.015 0 0 0-.004.01v.035A.197.197 0 0 0 .235.016.21.21 0 0 0 .095.01a.124.124 0 0 0-.083.07A.15.15 0 0 0 0 .143a.121.121 0 0 0 .06.112.22.22 0 0 0 .073.027C.163.287.196.29.235.29h.042v.026a.129.129 0 0 1-.004.036.055.055 0 0 1-.04.041A.205.205 0 0 1 .14.391a.32.32 0 0 1-.073-.03.044.044 0 0 0-.02-.007.016.016 0 0 0-.01.003.029.029 0 0 0-.007.01.132.132 0 0 0-.003.06.035.035 0 0 0 .01.016A.262.262 0 0 0 .1.475.35.35 0 0 0 .293.48a.144.144 0 0 0 .06-.03.118.118 0 0 0 .034-.054.25.25 0 0 0 .01-.078V.026m-.12.187H.23A.252.252 0 0 1 .18.208.097.097 0 0 1 .146.195a.056.056 0 0 1-.02-.021A.065.065 0 0 1 .12.146C.12.127.126.113.137.103A.07.07 0 0 1 .186.087C.203.087.219.09.233.1.248.11.263.122.277.14v.074z"/></symbol><symbol id="az"><path d="M.333.15A.144.144 0 0 0 .318.086.128.128 0 0 0 .28.038.174.174 0 0 0 .22.01.276.276 0 0 0 .097.004a.287.287 0 0 0-.069.02.078.078 0 0 0-.017.011.036.036 0 0 0-.008.016A.202.202 0 0 0 0 .106c0 .006.002.01.003.014s.003.006.005.007a.013.013 0 0 0 .007.002.494.494 0 0 1 .078-.033.164.164 0 0 1 .077-.003.071.071 0 0 1 .022.01.04.04 0 0 1 .015.016.05.05 0 0 1 .005.022c0 .01-.003.018-.01.025A.074.074 0 0 1 .18.185a.255.255 0 0 1-.034.014 1.036 1.036 0 0 0-.077.034.126.126 0 0 0-.058.064.142.142 0 0 0-.009.053c0 .02.005.04.013.057.008.018.02.033.035.045a.167.167 0 0 0 .055.029.251.251 0 0 0 .114.007.289.289 0 0 0 .062-.017.064.064 0 0 0 .015-.009.02.02 0 0 0 .007-.007.028.028 0 0 0 .003-.009L.307.434.308.415A.19.19 0 0 0 .305.38.012.012 0 0 0 .3.374.015.015 0 0 0 .293.372.034.034 0 0 0 .28.377a.2.2 0 0 1-.056.022.146.146 0 0 1-.07.002.055.055 0 0 1-.02-.01.042.042 0 0 1-.016-.033c0-.01.003-.019.01-.025A.085.085 0 0 1 .151.314.284.284 0 0 1 .186.3.643.643 0 0 0 .264.266.146.146 0 0 0 .3.24.121.121 0 0 0 .333.15z"/></symbol><symbol id="aA"><path d="M.312.621.311.598A.053.053 0 0 0 .308.585.017.017 0 0 0 .304.579.01.01 0 0 0 .298.577c-.002 0-.005 0-.007.002a.1.1 0 0 1-.024.007.086.086 0 0 1-.02.002.056.056 0 0 1-.023-.005A.036.036 0 0 1 .208.57a.06.06 0 0 1-.01-.023.177.177 0 0 1-.002-.035v-.04h.08C.277.472.28.47.282.469A.017.017 0 0 0 .29.461a.165.165 0 0 0 0-.078C.286.376.282.373.275.373h-.08V.02A.014.014 0 0 0 .194.01a.023.023 0 0 0-.01-.005.256.256 0 0 0-.098 0 .023.023 0 0 0-.01.006.016.016 0 0 0-.002.009v.352H.02C.012.372.008.376.004.383a.246.246 0 0 0-.003.063.082.082 0 0 0 .003.015.019.019 0 0 0 .006.008.016.016 0 0 0 .009.003h.054v.036c0 .03.003.056.009.078a.14.14 0 0 0 .027.056.118.118 0 0 0 .048.033.192.192 0 0 0 .105.008A.138.138 0 0 0 .29.676.037.037 0 0 0 .302.67.02.02 0 0 0 .308.66.056.056 0 0 0 .31.645L.312.62z"/></symbol><symbol id="aB"><path d="M.467.25A.333.333 0 0 0 .452.148a.198.198 0 0 0-.12-.13A.28.28 0 0 0 .229 0a.288.288 0 0 0-.101.016.182.182 0 0 0-.113.123A.352.352 0 0 0 0 .24c0 .037.005.071.015.102C.025.373.04.4.06.422c.02.022.044.04.074.051a.28.28 0 0 0 .105.018A.29.29 0 0 0 .34.475.173.173 0 0 0 .411.43.193.193 0 0 0 .453.353.354.354 0 0 0 .467.25M.34.245a.302.302 0 0 1-.005.06.136.136 0 0 1-.017.047.086.086 0 0 1-.033.03.103.103 0 0 1-.05.012.106.106 0 0 1-.048-.01.083.083 0 0 1-.034-.03.14.14 0 0 1-.02-.046.31.31 0 0 1-.001-.121A.15.15 0 0 1 .149.14.086.086 0 0 1 .182.11a.109.109 0 0 1 .05-.01C.251.098.267.1.281.107a.089.089 0 0 1 .033.03.134.134 0 0 1 .02.045.275.275 0 0 1 .006.062z"/></symbol><symbol id="aC"><path d="M.693.02A.014.014 0 0 0 .69.01.023.023 0 0 0 .68.006a.248.248 0 0 0-.098 0 .023.023 0 0 0-.01.006A.016.016 0 0 0 .57.02v.258a.17.17 0 0 1-.004.04.085.085 0 0 1-.013.03.06.06 0 0 1-.052.027A.073.073 0 0 1 .457.36a.297.297 0 0 1-.05-.05V.02A.014.014 0 0 0 .406.012a.023.023 0 0 0-.01-.006.243.243 0 0 0-.097 0 .023.023 0 0 0-.01.006.014.014 0 0 0-.003.009v.258a.17.17 0 0 1-.004.04.09.09 0 0 1-.012.03.055.055 0 0 1-.022.02.062.062 0 0 1-.03.008A.074.074 0 0 1 .17.359a.284.284 0 0 1-.048-.05V.02A.014.014 0 0 0 .12.012.023.023 0 0 0 .11.005a.248.248 0 0 0-.097 0 .023.023 0 0 0-.01.006A.014.014 0 0 0 0 .02v.435c0 .003 0 .006.002.008a.017.017 0 0 0 .01.007l.015.003a.184.184 0 0 0 .052 0A.051.051 0 0 0 .094.47.017.017 0 0 0 .103.463.014.014 0 0 0 .105.455v-.05a.29.29 0 0 0 .072.058c.024.013.049.02.075.02A.184.184 0 0 0 .3.477.126.126 0 0 0 .368.436a.146.146 0 0 0 .02-.033.385.385 0 0 0 .038.036A.226.226 0 0 0 .5.478a.165.165 0 0 0 .11-.01.125.125 0 0 0 .049-.04A.156.156 0 0 0 .685.37.315.315 0 0 0 .693.298V.02z"/></symbol><use xlink:href="#aw" transform="matrix(10.92 0 0 -10.92 242.664 174.772)"/><use xlink:href="#ax" transform="matrix(10.92 0 0 -10.92 248.677 174.772)"/><use xlink:href="#ay" transform="matrix(10.92 0 0 -10.92 252.217 174.863)"/><use xlink:href="#ar" transform="matrix(10.92 0 0 -10.92 257.905 174.772)"/><use xlink:href="#az" transform="matrix(10.92 0 0 -10.92 263.486 174.863)"/><use xlink:href="#aA" transform="matrix(10.92 0 0 -10.92 267.587 174.772)"/><use xlink:href="#aB" transform="matrix(10.92 0 0 -10.92 271.289 174.863)"/><use xlink:href="#ax" transform="matrix(10.92 0 0 -10.92 277.451 174.772)"/><use xlink:href="#aC" transform="matrix(10.92 0 0 -10.92 281.328 174.772)"/><use xlink:href="#aq" transform="matrix(10.92 0 0 -10.92 289.929 174.863)"/><use xlink:href="#ax" transform="matrix(10.92 0 0 -10.92 295.699 174.772)"/><use xlink:href="#az" transform="matrix(10.92 0 0 -10.92 299.293 174.863)"/></g></g><g data-name="P"><path d="M230.18 471.6a7.46 7.46 0 0 1 7.46-7.46h70.64a7.46 7.46 0 0 1 7.46 7.46v29.84a7.46 7.46 0 0 1-7.46 7.46h-70.64a7.46 7.46 0 0 1-7.46-7.46z" fill="#cdeb8b" fill-rule="evenodd"/><path stroke-width="1.5" stroke-miterlimit="10" fill="none" stroke="#b5b5b5" d="M230.18 471.6a7.46 7.46 0 0 1 7.46-7.46h70.64a7.46 7.46 0 0 1 7.46 7.46v29.84a7.46 7.46 0 0 1-7.46 7.46h-70.64a7.46 7.46 0 0 1-7.46-7.46z"/></g><g data-name="Span"><clipPath id="aD"><path transform="matrix(1 0 0 -1 -25 1393)" d="M0 0h841.92v1417.32H0z" fill-rule="evenodd"/></clipPath><g clip-path="url(#aD)"><symbol id="aE"><path d="M.433.443A.25.25 0 0 0 .416.349a.184.184 0 0 0-.048-.07A.215.215 0 0 0 .29.237.358.358 0 0 0 .18.222H.128V.021A.013.013 0 0 0 .125.01a.02.02 0 0 0-.01-.006.271.271 0 0 0-.102 0 .02.02 0 0 0-.01.007A.014.014 0 0 0 0 .02v.568c0 .015.004.027.012.034a.044.044 0 0 0 .031.012h.15a.438.438 0 0 0 .09-.01.205.205 0 0 0 .108-.059.157.157 0 0 0 .03-.054.21.21 0 0 0 .012-.07M.298.435c0 .022-.004.04-.011.054a.08.08 0 0 1-.03.032.092.092 0 0 1-.035.013.247.247 0 0 1-.039.003H.128V.32h.058c.02 0 .038.003.051.009a.09.09 0 0 1 .055.058c.004.014.006.03.006.046z"/></symbol><symbol id="aF"><path d="M.132.02A.014.014 0 0 0 .13.01.023.023 0 0 0 .12.006a.248.248 0 0 0-.097 0 .023.023 0 0 0-.01.006A.014.014 0 0 0 .01.02v.434C.01.457.01.46.012.462a.02.02 0 0 0 .01.007.079.079 0 0 0 .019.004A.248.248 0 0 0 .119.47.02.02 0 0 0 .13.462.012.012 0 0 0 .132.454V.02m.01.583C.142.578.137.56.126.55.116.541.098.537.07.537.043.537.024.542.014.551.004.56 0 .576 0 .6c0 .024.005.04.015.05.01.01.029.015.056.015C.1.666.117.661.127.652c.01-.01.015-.026.015-.05z"/></symbol><symbol id="aG"><path d="M.438.028c0-.004 0-.007-.002-.01A.019.019 0 0 0 .427.014.057.057 0 0 0 .411.009a.253.253 0 0 0-.066.004.023.023 0 0 0-.009.006.017.017 0 0 0-.002.009v.048A.278.278 0 0 0 .264.02.167.167 0 0 0 .181 0a.173.173 0 0 0-.085.019.166.166 0 0 0-.056.052.229.229 0 0 0-.031.076.424.424 0 0 0 .002.197.24.24 0 0 0 .037.08.161.161 0 0 0 .06.05A.183.183 0 0 0 .19.49.144.144 0 0 0 .257.476.23.23 0 0 0 .316.433v.235c0 .004 0 .007.002.01a.02.02 0 0 0 .01.006.079.079 0 0 0 .02.004.248.248 0 0 0 .077-.004.02.02 0 0 0 .01-.007.014.014 0 0 0 .003-.009v-.64m-.122.29a.266.266 0 0 1-.05.052.084.084 0 0 1-.051.017.07.07 0 0 1-.042-.012.088.088 0 0 1-.027-.032A.183.183 0 0 1 .13.298a.317.317 0 0 1 0-.104.176.176 0 0 1 .014-.046A.09.09 0 0 1 .17.116.069.069 0 0 1 .212.104c.009 0 .017.001.025.003A.095.095 0 0 1 .26.12.164.164 0 0 1 .287.14c.009.01.019.02.029.033V.32z"/></symbol><use xlink:href="#aE" transform="matrix(10.92 0 0 -10.92 249.592 477.002)"/><use xlink:href="#ax" transform="matrix(10.92 0 0 -10.92 255.267 477.002)"/><use xlink:href="#aq" transform="matrix(10.92 0 0 -10.92 258.833 477.093)"/><use xlink:href="#as" transform="matrix(10.92 0 0 -10.92 264.054 477.077)"/><use xlink:href="#ax" transform="matrix(10.92 0 0 -10.92 268.458 477.002)"/><use xlink:href="#ay" transform="matrix(10.92 0 0 -10.92 272.009 477.093)"/><use xlink:href="#aF" transform="matrix(10.92 0 0 -10.92 277.595 477.002)"/><use xlink:href="#ar" transform="matrix(10.92 0 0 -10.92 280.339 477.002)"/><use xlink:href="#aq" transform="matrix(10.92 0 0 -10.92 285.926 477.093)"/><use xlink:href="#aG" transform="matrix(10.92 0 0 -10.92 291.457 477.093)"/><use xlink:href="#au" transform="matrix(10.92 0 0 -10.92 296.92 476.97)"/></g></g><g data-name="Span"><clipPath id="aH"><path transform="matrix(1 0 0 -1 -25 1393)" d="M0 0h841.92v1417.32H0z" fill-rule="evenodd"/></clipPath><g clip-path="url(#aH)"><use xlink:href="#aw" transform="matrix(10.92 0 0 -10.92 244.824 490.202)"/><use xlink:href="#ax" transform="matrix(10.92 0 0 -10.92 250.837 490.202)"/><use xlink:href="#ay" transform="matrix(10.92 0 0 -10.92 254.377 490.293)"/><use xlink:href="#ar" transform="matrix(10.92 0 0 -10.92 260.065 490.202)"/><use xlink:href="#az" transform="matrix(10.92 0 0 -10.92 265.646 490.293)"/><use xlink:href="#aA" transform="matrix(10.92 0 0 -10.92 269.747 490.202)"/><use xlink:href="#aB" transform="matrix(10.92 0 0 -10.92 273.449 490.293)"/><use xlink:href="#ax" transform="matrix(10.92 0 0 -10.92 279.611 490.202)"/><use xlink:href="#aC" transform="matrix(10.92 0 0 -10.92 283.488 490.202)"/><use xlink:href="#aq" transform="matrix(10.92 0 0 -10.92 292.089 490.293)"/><use xlink:href="#ax" transform="matrix(10.92 0 0 -10.92 297.859 490.202)"/><use xlink:href="#au" transform="matrix(10.92 0 0 -10.92 301.063 490.17)"/></g></g><g data-name="Span"><clipPath id="aI"><path transform="matrix(1 0 0 -1 -25 1393)" d="M0 0h841.92v1417.32H0z" fill-rule="evenodd"/></clipPath><g clip-path="url(#aI)"><symbol id="aJ"><path d="M.736.02A.014.014 0 0 0 .733.013C.732.009.73.007.723.005a.248.248 0 0 0-.096 0 .02.02 0 0 0-.01.007.014.014 0 0 0-.002.009v.514H.614L.43.02a.026.026 0 0 0-.007-.01.033.033 0 0 0-.012-.007.348.348 0 0 0-.095.001.04.04 0 0 0-.012.007A.019.019 0 0 0 .3.02L.123.535H.122V.02A.014.014 0 0 0 .119.01L.109.006a.236.236 0 0 0-.097 0 .02.02 0 0 0-.01.007A.016.016 0 0 0 0 .02v.562C0 .6.004.613.013.622c.009.008.02.013.035.013h.084A.166.166 0 0 0 .171.63.07.07 0 0 0 .218.596C.223.587.228.576.232.562L.369.186H.37L.512.56a.214.214 0 0 0 .014.035c.005.01.01.017.017.023.007.006.015.01.024.012.01.002.02.004.032.004h.087A.065.065 0 0 0 .708.63a.036.036 0 0 0 .016-.01.038.038 0 0 0 .009-.016.062.062 0 0 0 .003-.022V.021z"/></symbol><symbol id="aK"><path d="M.123.02A.014.014 0 0 0 .12.01.023.023 0 0 0 .11.006a.248.248 0 0 0-.097 0 .023.023 0 0 0-.01.006A.014.014 0 0 0 0 .02v.642C0 .665.001.668.003.67a.02.02 0 0 0 .01.007.079.079 0 0 0 .019.004A.248.248 0 0 0 .11.677.02.02 0 0 0 .12.67.014.014 0 0 0 .123.662V.02z"/></symbol><use xlink:href="#aJ" transform="matrix(10.92 0 0 -10.92 256.672 503.402)"/><use xlink:href="#aB" transform="matrix(10.92 0 0 -10.92 265.892 503.493)"/><use xlink:href="#aG" transform="matrix(10.92 0 0 -10.92 271.783 503.493)"/><use xlink:href="#aq" transform="matrix(10.92 0 0 -10.92 277.641 503.493)"/><use xlink:href="#aK" transform="matrix(10.92 0 0 -10.92 283.444 503.402)"/><use xlink:href="#az" transform="matrix(10.92 0 0 -10.92 285.804 503.493)"/></g></g><g data-name="P"><path d="M54.5 461.14h87.84v-37.32H54.5z" fill="#ffc" fill-rule="evenodd"/><path stroke-width="1.5" stroke-miterlimit="10" fill="none" stroke="#b5b5b5" d="M54.5 461.14h87.84v-37.32H54.5z"/></g><g data-name="Span"><clipPath id="aL"><path transform="matrix(1 0 0 -1 -25 1393)" d="M0 0h841.92v1417.32H0z" fill-rule="evenodd"/></clipPath><g clip-path="url(#aL)"><use xlink:href="#M" transform="matrix(10.08 0 0 -10.08 79.667 439.86)"/><use xlink:href="#D" transform="matrix(10.08 0 0 -10.08 83.94 439.89)"/><use xlink:href="#f" transform="matrix(10.08 0 0 -10.08 88.226 439.944)"/><use xlink:href="#p" transform="matrix(10.08 0 0 -10.08 92.193 439.89)"/><use xlink:href="#k" transform="matrix(10.08 0 0 -10.08 95.36 439.954)"/><use xlink:href="#g" transform="matrix(10.08 0 0 -10.08 100.179 439.954)"/><use xlink:href="#f" transform="matrix(10.08 0 0 -10.08 104.162 439.944)"/><use xlink:href="#d" transform="matrix(10.08 0 0 -10.08 107.834 439.954)"/><use xlink:href="#u" transform="matrix(10.08 0 0 -10.08 112.89 439.954)"/><use xlink:href="#h" transform="matrix(10.08 0 0 -10.08 117.709 439.86)"/></g></g><g data-name="Span"><clipPath id="aM"><path transform="matrix(1 0 0 -1 -25 1393)" d="M0 0h841.92v1417.32H0z" fill-rule="evenodd"/></clipPath><g clip-path="url(#aM)"><use xlink:href="#c" transform="matrix(10.08 0 0 -10.08 68.853 452.074)"/><use xlink:href="#d" transform="matrix(10.08 0 0 -10.08 73.629 452.074)"/><use xlink:href="#e" transform="matrix(10.08 0 0 -10.08 78.944 452.01)"/><use xlink:href="#f" transform="matrix(10.08 0 0 -10.08 83.645 452.064)"/><use xlink:href="#d" transform="matrix(10.08 0 0 -10.08 87.317 452.074)"/><use xlink:href="#e" transform="matrix(10.08 0 0 -10.08 92.633 452.01)"/><use xlink:href="#g" transform="matrix(10.08 0 0 -10.08 97.614 452.074)"/><use xlink:href="#d" transform="matrix(10.08 0 0 -10.08 101.943 452.074)"/><use xlink:href="#h" transform="matrix(10.08 0 0 -10.08 106.506 451.98)"/><use xlink:href="#S" transform="matrix(10.08 0 0 -10.08 109.288 452.01)"/><use xlink:href="#k" transform="matrix(10.08 0 0 -10.08 114.055 452.074)"/><use xlink:href="#l" transform="matrix(10.08 0 0 -10.08 119.085 452.01)"/><use xlink:href="#p" transform="matrix(10.08 0 0 -10.08 121.431 452.01)"/><use xlink:href="#w" transform="matrix(10.08 0 0 -10.08 124.554 452.074)"/></g></g><g data-name="P"><path d="M356.78 578.16c0-1.6 1.3-2.9 2.9-2.9h113.24c1.6 0 2.9 1.3 2.9 2.9v11.6c0 1.6-1.3 2.9-2.9 2.9H359.68c-1.6 0-2.9-1.3-2.9-2.9z" fill="#cdeb8b" fill-rule="evenodd"/><path stroke-width="1.5" stroke-miterlimit="10" fill="none" stroke="#b5b5b5" d="M356.78 578.16c0-1.6 1.3-2.9 2.9-2.9h113.24c1.6 0 2.9 1.3 2.9 2.9v11.6c0 1.6-1.3 2.9-2.9 2.9H359.68c-1.6 0-2.9-1.3-2.9-2.9z"/></g><g data-name="Span"><clipPath id="aN"><path transform="matrix(1 0 0 -1 -25 1393)" d="M0 0h841.92v1417.32H0z" fill-rule="evenodd"/></clipPath><g clip-path="url(#aN)"><use xlink:href="#Y" transform="matrix(10.08 0 0 -10.08 406.477 587.42)"/><use xlink:href="#q" transform="matrix(10.08 0 0 -10.08 411.99 587.42)"/><use xlink:href="#M" transform="matrix(10.08 0 0 -10.08 416.194 587.42)"/><use xlink:href="#s" transform="matrix(10.08 0 0 -10.08 421.103 587.514)"/></g></g><g data-name="P"><path d="M356.78 603.24c0-1.6 1.3-2.9 2.9-2.9h113.24c1.6 0 2.9 1.3 2.9 2.9v11.6c0 1.6-1.3 2.9-2.9 2.9H359.68c-1.6 0-2.9-1.3-2.9-2.9z" fill="#cdeb8b" fill-rule="evenodd"/><path stroke-width="1.5" stroke-miterlimit="10" fill="none" stroke="#b5b5b5" d="M356.78 603.24c0-1.6 1.3-2.9 2.9-2.9h113.24c1.6 0 2.9 1.3 2.9 2.9v11.6c0 1.6-1.3 2.9-2.9 2.9H359.68c-1.6 0-2.9-1.3-2.9-2.9z"/></g><g data-name="Span"><clipPath id="aO"><path transform="matrix(1 0 0 -1 -25 1393)" d="M0 0h841.92v1417.32H0z" fill-rule="evenodd"/></clipPath><g clip-path="url(#aO)"><use xlink:href="#ai" transform="matrix(10.08 0 0 -10.08 399.277 612.5)"/><use xlink:href="#M" transform="matrix(10.08 0 0 -10.08 407.895 612.47)"/><use xlink:href="#y" transform="matrix(10.08 0 0 -10.08 412.041 612.5)"/><use xlink:href="#M" transform="matrix(10.08 0 0 -10.08 417.743 612.47)"/><use xlink:href="#C" transform="matrix(10.08 0 0 -10.08 422.303 612.563)"/><use xlink:href="#F" transform="matrix(10.08 0 0 -10.08 429.375 612.5)"/></g></g><g data-name="P"><path d="M356.78 455.64c0-1.6 1.3-2.9 2.9-2.9h113.24c1.6 0 2.9 1.3 2.9 2.9v11.6c0 1.6-1.3 2.9-2.9 2.9H359.68c-1.6 0-2.9-1.3-2.9-2.9z" fill="#cdeb8b" fill-rule="evenodd"/><path stroke-width="1.5" stroke-miterlimit="10" fill="none" stroke="#b5b5b5" d="M356.78 455.64c0-1.6 1.3-2.9 2.9-2.9h113.24c1.6 0 2.9 1.3 2.9 2.9v11.6c0 1.6-1.3 2.9-2.9 2.9H359.68c-1.6 0-2.9-1.3-2.9-2.9z"/></g><g data-name="Span"><clipPath id="aP"><path transform="matrix(1 0 0 -1 -25 1393)" d="M0 0h841.92v1417.32H0z" fill-rule="evenodd"/></clipPath><g clip-path="url(#aP)"><use xlink:href="#ai" transform="matrix(10.08 0 0 -10.08 395.677 464.88)"/><use xlink:href="#k" transform="matrix(10.08 0 0 -10.08 403.901 464.943)"/><use xlink:href="#p" transform="matrix(10.08 0 0 -10.08 409.03 464.88)"/><use xlink:href="#l" transform="matrix(10.08 0 0 -10.08 412.409 464.88)"/><use xlink:href="#k" transform="matrix(10.08 0 0 -10.08 414.485 464.943)"/><use xlink:href="#e" transform="matrix(10.08 0 0 -10.08 419.614 464.88)"/><use xlink:href="#ai" transform="matrix(10.08 0 0 -10.08 424.959 464.88)"/><use xlink:href="#y" transform="matrix(10.08 0 0 -10.08 432.805 464.88)"/></g></g><g data-name="P"><path d="M356.78 480.72c0-1.6 1.3-2.9 2.9-2.9h113.24c1.6 0 2.9 1.3 2.9 2.9v11.6c0 1.6-1.3 2.9-2.9 2.9H359.68c-1.6 0-2.9-1.3-2.9-2.9z" fill="#cdeb8b" fill-rule="evenodd"/><path stroke-width="1.5" stroke-miterlimit="10" fill="none" stroke="#b5b5b5" d="M356.78 480.72c0-1.6 1.3-2.9 2.9-2.9h113.24c1.6 0 2.9 1.3 2.9 2.9v11.6c0 1.6-1.3 2.9-2.9 2.9H359.68c-1.6 0-2.9-1.3-2.9-2.9z"/></g><g data-name="Span"><clipPath id="aQ"><path transform="matrix(1 0 0 -1 -25 1393)" d="M0 0h841.92v1417.32H0z" fill-rule="evenodd"/></clipPath><g clip-path="url(#aQ)"><symbol id="aR"><path d="M.399.212a.226.226 0 0 0-.017-.09.185.185 0 0 0-.049-.067.216.216 0 0 0-.074-.04.305.305 0 0 0-.152-.01.368.368 0 0 0-.08.021.078.078 0 0 0-.017.01.026.026 0 0 0-.005.006.072.072 0 0 0-.003.007.201.201 0 0 0-.001.04L.002.1a.017.017 0 0 0 .005.006.011.011 0 0 0 .006.002C.017.108.022.106.03.102A.276.276 0 0 1 .1.076a.259.259 0 0 1 .122.001.124.124 0 0 1 .047.025.114.114 0 0 1 .03.041.152.152 0 0 1 .012.062C.31.225.307.243.3.258a.088.088 0 0 1-.029.038.126.126 0 0 1-.05.023.386.386 0 0 1-.124.005.297.297 0 0 0-.04-.003C.05.321.043.323.039.328.034.332.032.34.032.352V.61c0 .011.003.02.008.024a.03.03 0 0 0 .022.008h.28c.002 0 .004 0 .007-.002A.015.015 0 0 0 .355.632.078.078 0 0 0 .36.605.062.062 0 0 0 .355.578C.352.57.347.568.341.568H.105V.39a.307.307 0 0 0 .17-.01.181.181 0 0 0 .069-.037.147.147 0 0 0 .04-.057A.191.191 0 0 0 .4.212z"/></symbol><use xlink:href="#y" transform="matrix(10.08 0 0 -10.08 399.464 489.96)"/><use xlink:href="#aR" transform="matrix(10.08 0 0 -10.08 404.807 490.024)"/></g></g><g data-name="Span"><clipPath id="aS"><path transform="matrix(1 0 0 -1 -25 1393)" d="M0 0h841.92v1417.32H0z" fill-rule="evenodd"/></clipPath><g clip-path="url(#aS)"><use xlink:href="#V" transform="matrix(10.08 0 0 -10.08 409.81 487.784)"/></g></g><g data-name="Span"><clipPath id="aT"><path transform="matrix(1 0 0 -1 -25 1393)" d="M0 0h841.92v1417.32H0z" fill-rule="evenodd"/></clipPath><g clip-path="url(#aT)"><use xlink:href="#t" transform="matrix(10.08 0 0 -10.08 413.343 489.96)"/><use xlink:href="#k" transform="matrix(10.08 0 0 -10.08 415.32 490.024)"/><use xlink:href="#p" transform="matrix(10.08 0 0 -10.08 420.45 489.96)"/><use xlink:href="#i" transform="matrix(10.08 0 0 -10.08 423.405 491.726)"/><use xlink:href="#d" transform="matrix(10.08 0 0 -10.08 428.39 490.024)"/></g></g><g data-name="P"><path d="M356.78 507.24c0-1.6 1.3-2.9 2.9-2.9h113.24c1.6 0 2.9 1.3 2.9 2.9v11.6c0 1.6-1.3 2.9-2.9 2.9H359.68c-1.6 0-2.9-1.3-2.9-2.9z" fill="#cdeb8b" fill-rule="evenodd"/><path stroke-width="1.5" stroke-miterlimit="10" fill="none" stroke="#b5b5b5" d="M356.78 507.24c0-1.6 1.3-2.9 2.9-2.9h113.24c1.6 0 2.9 1.3 2.9 2.9v11.6c0 1.6-1.3 2.9-2.9 2.9H359.68c-1.6 0-2.9-1.3-2.9-2.9z"/></g><g data-name="Span"><clipPath id="aU"><path transform="matrix(1 0 0 -1 -25 1393)" d="M0 0h841.92v1417.32H0z" fill-rule="evenodd"/></clipPath><g clip-path="url(#aU)"><use xlink:href="#ae" transform="matrix(10.08 0 0 -10.08 366.397 516.5)"/><use xlink:href="#q" transform="matrix(10.08 0 0 -10.08 372.877 516.47)"/><use xlink:href="#q" transform="matrix(10.08 0 0 -10.08 377.078 516.47)"/><use xlink:href="#Y" transform="matrix(10.08 0 0 -10.08 381.28 516.47)"/></g></g><g data-name="Span"><clipPath id="aV"><path transform="matrix(1 0 0 -1 -25 1393)" d="M0 0h841.92v1417.32H0z" fill-rule="evenodd"/></clipPath><g clip-path="url(#aV)"><use xlink:href="#V" transform="matrix(10.08 0 0 -10.08 386.29 514.324)"/></g></g><g data-name="Span"><clipPath id="aW"><path transform="matrix(1 0 0 -1 -25 1393)" d="M0 0h841.92v1417.32H0z" fill-rule="evenodd"/></clipPath><g clip-path="url(#aW)"><symbol id="aX"><path d="M.396.036A.075.075 0 0 0 .39.01.015.015 0 0 0 .385.002.015.015 0 0 0 .377 0h-.35L.017.001a.026.026 0 0 0-.01.006.028.028 0 0 0-.005.012A.26.26 0 0 0 0 .054l.004.012A.074.074 0 0 0 .02.09l.122.13C.17.25.193.277.21.3c.017.024.03.046.04.065a.213.213 0 0 1 .022.098.113.113 0 0 1-.006.04.095.095 0 0 1-.098.064.163.163 0 0 1-.053-.008.294.294 0 0 1-.072-.037C.036.517.03.514.026.514.024.514.02.514.02.516a.017.017 0 0 0-.005.006.135.135 0 0 0-.001.051.05.05 0 0 0 .003.008.035.035 0 0 0 .008.008c.004.004.01.009.02.015L.08.62a.318.318 0 0 0 .103.02c.03 0 .057-.004.08-.013A.155.155 0 0 0 .321.593.143.143 0 0 0 .355.54.178.178 0 0 0 .367.477c0-.02-.002-.04-.006-.06A.244.244 0 0 0 .338.352a.488.488 0 0 0-.05-.078A1.161 1.161 0 0 0 .203.176L.102.07h.274C.38.071.382.071.384.07A.015.015 0 0 0 .39.062a.027.027 0 0 0 .004-.01.068.068 0 0 0 .002-.016z"/></symbol><symbol id="aY"><path d="M.437.327A.695.695 0 0 0 .425.194.3.3 0 0 0 .387.09a.187.187 0 0 0-.07-.067A.219.219 0 0 0 .213 0a.219.219 0 0 0-.1.021.167.167 0 0 0-.066.062.298.298 0 0 0-.036.102.837.837 0 0 0 .002.271C.02.496.032.531.05.56c.017.029.04.05.07.066A.214.214 0 0 0 .224.65c.04 0 .073-.007.1-.021A.162.162 0 0 0 .391.566.287.287 0 0 0 .426.465.792.792 0 0 0 .437.327M.351.32a.947.947 0 0 1-.014.151.198.198 0 0 1-.017.05.11.11 0 0 1-.025.034.086.086 0 0 1-.033.02.13.13 0 0 1-.042.006.109.109 0 0 1-.068-.02.133.133 0 0 1-.04-.054.288.288 0 0 1-.02-.08A.85.85 0 0 1 .092.21a.27.27 0 0 1 .023-.08.107.107 0 0 1 .04-.046.12.12 0 0 1 .06-.014.12.12 0 0 1 .049.009A.1.1 0 0 1 .3.103c.01.01.019.024.025.04a.413.413 0 0 1 .023.11.912.912 0 0 1 .003.068z"/></symbol><use xlink:href="#aX" transform="matrix(10.08 0 0 -10.08 389.631 516.47)"/><use xlink:href="#aY" transform="matrix(10.08 0 0 -10.08 394.584 516.563)"/><use xlink:href="#aY" transform="matrix(10.08 0 0 -10.08 399.744 516.563)"/></g></g><g data-name="Span"><clipPath id="aZ"><path transform="matrix(1 0 0 -1 -25 1393)" d="M0 0h841.92v1417.32H0z" fill-rule="evenodd"/></clipPath><g clip-path="url(#aZ)"><use xlink:href="#V" transform="matrix(10.08 0 0 -10.08 404.89 514.324)"/></g></g><g data-name="Span"><clipPath id="ba"><path transform="matrix(1 0 0 -1 -25 1393)" d="M0 0h841.92v1417.32H0z" fill-rule="evenodd"/></clipPath><g clip-path="url(#ba)"><use xlink:href="#u" transform="matrix(10.08 0 0 -10.08 408.143 516.563)"/><use xlink:href="#l" transform="matrix(10.08 0 0 -10.08 413.617 516.5)"/><use xlink:href="#w" transform="matrix(10.08 0 0 -10.08 415.629 516.563)"/><use xlink:href="#f" transform="matrix(10.08 0 0 -10.08 419.334 516.554)"/><use xlink:href="#l" transform="matrix(10.08 0 0 -10.08 423.203 516.5)"/><use xlink:href="#t" transform="matrix(10.08 0 0 -10.08 425.58 516.5)"/><use xlink:href="#t" transform="matrix(10.08 0 0 -10.08 427.857 516.5)"/><use xlink:href="#d" transform="matrix(10.08 0 0 -10.08 429.84 516.563)"/><use xlink:href="#u" transform="matrix(10.08 0 0 -10.08 434.875 516.563)"/></g></g><g data-name="Span"><clipPath id="bb"><path transform="matrix(1 0 0 -1 -25 1393)" d="M0 0h841.92v1417.32H0z" fill-rule="evenodd"/></clipPath><g clip-path="url(#bb)"><use xlink:href="#V" transform="matrix(10.08 0 0 -10.08 440.05 514.324)"/></g></g><g data-name="Span"><clipPath id="bc"><path transform="matrix(1 0 0 -1 -25 1393)" d="M0 0h841.92v1417.32H0z" fill-rule="evenodd"/></clipPath><g clip-path="url(#bc)"><symbol id="bd"><path d="M.415.214a.259.259 0 0 0-.013-.08.193.193 0 0 0-.039-.07.196.196 0 0 0-.067-.046A.24.24 0 0 0 .201 0a.228.228 0 0 0-.07.01.156.156 0 0 0-.09.072.272.272 0 0 0-.024.06.475.475 0 0 0-.013.074.887.887 0 0 0 0 .168.459.459 0 0 0 .016.08c.008.026.018.05.03.072a.225.225 0 0 0 .118.1A.277.277 0 0 0 .3.646.248.248 0 0 0 .36.634.059.059 0 0 0 .375.626.014.014 0 0 0 .379.621.022.022 0 0 0 .382.614L.383.605v-.01A.201.201 0 0 0 .382.568.012.012 0 0 0 .377.563.01.01 0 0 0 .37.561a.046.046 0 0 0-.015.003.371.371 0 0 1-.054.016.243.243 0 0 1-.044.003A.156.156 0 0 1 .18.564a.157.157 0 0 1-.054-.05.234.234 0 0 1-.03-.072.43.43 0 0 1-.012-.086.377.377 0 0 0 .063.028.3.3 0 0 0 .085.013.232.232 0 0 0 .087-.014.14.14 0 0 0 .088-.097.268.268 0 0 0 .009-.072M.33.206a.207.207 0 0 1-.006.051.085.085 0 0 1-.054.064.146.146 0 0 1-.054.01.214.214 0 0 1-.104-.025.208.208 0 0 1-.027-.017c0-.042.003-.077.008-.105A.22.22 0 0 1 .116.115.094.094 0 0 1 .155.08.126.126 0 0 1 .208.068.112.112 0 0 1 .3.11c.01.013.018.028.023.044A.18.18 0 0 1 .33.206z"/></symbol><use xlink:href="#bd" transform="matrix(10.08 0 0 -10.08 443.357 516.563)"/><use xlink:href="#aY" transform="matrix(10.08 0 0 -10.08 448.344 516.563)"/><use xlink:href="#aY" transform="matrix(10.08 0 0 -10.08 453.504 516.563)"/><use xlink:href="#ai" transform="matrix(10.08 0 0 -10.08 459.156 516.5)"/></g></g><g data-name="P"><path d="M356.78 628.32c0-1.6 1.3-2.9 2.9-2.9h113.24c1.6 0 2.9 1.3 2.9 2.9v11.6c0 1.6-1.3 2.9-2.9 2.9H359.68c-1.6 0-2.9-1.3-2.9-2.9z" fill="#cdeb8b" fill-rule="evenodd"/><path stroke-width="1.5" stroke-miterlimit="10" fill="none" stroke="#b5b5b5" d="M356.78 628.32c0-1.6 1.3-2.9 2.9-2.9h113.24c1.6 0 2.9 1.3 2.9 2.9v11.6c0 1.6-1.3 2.9-2.9 2.9H359.68c-1.6 0-2.9-1.3-2.9-2.9z"/></g><g data-name="Span"><clipPath id="be"><path transform="matrix(1 0 0 -1 -25 1393)" d="M0 0h841.92v1417.32H0z" fill-rule="evenodd"/></clipPath><g clip-path="url(#be)"><use xlink:href="#Y" transform="matrix(10.08 0 0 -10.08 396.997 637.55)"/><use xlink:href="#d" transform="matrix(10.08 0 0 -10.08 402.122 637.644)"/><use xlink:href="#p" transform="matrix(10.08 0 0 -10.08 407.437 637.58)"/><use xlink:href="#f" transform="matrix(10.08 0 0 -10.08 410.364 637.634)"/><use xlink:href="#c" transform="matrix(10.08 0 0 -10.08 413.898 637.644)"/><use xlink:href="#g" transform="matrix(10.08 0 0 -10.08 418.658 637.644)"/><use xlink:href="#m" transform="matrix(10.08 0 0 -10.08 422.972 637.644)"/><use xlink:href="#p" transform="matrix(10.08 0 0 -10.08 428.564 637.58)"/><use xlink:href="#d" transform="matrix(10.08 0 0 -10.08 431.747 637.644)"/></g></g><path stroke-width="1.25" stroke-miterlimit="10" fill="none" stroke="#bdbdbd" d="m190.64 609.02 166.04-25.06M190.64 609.04h166.04M190.64 609.04l166.04 25.06M190.4 486.4h39.73M315.68 486.5l41.06-25.06M315.68 486.4h41.06M315.68 486.4l41.06 26.56M190.4 164.44h39.78" data-name="P"/></svg>